<svg xmlns="http://www.w3.org/2000/svg" width="43.98" height="43.975">
    <defs>
        <style>
            .cls-1{fill:#07c7a2}
        </style>
    </defs>
    <g id="communities" transform="translate(-.969 -.966)">
        <path id="Path_5449" data-name="Path 5449" class="cls-1" d="M31.607 29.656a3.545 3.545 0 1 0-3.288 0A4.968 4.968 0 0 0 25 34.335a.709.709 0 0 0 .709.709h8.508a.709.709 0 0 0 .709-.709 4.968 4.968 0 0 0-3.319-4.679zm-1.644-5.247a2.127 2.127 0 1 1-2.127 2.127 2.127 2.127 0 0 1 2.127-2.127zm-3.474 9.217a3.545 3.545 0 0 1 6.948 0z" transform="translate(-6.993 -6.403)"/>
        <path id="Path_5450" data-name="Path 5450" class="cls-1" d="M37.859 30.768a7.057 7.057 0 0 0-4.484 1.6l-3.413-3.413a9.169 9.169 0 0 0 2.206-5.62l7.24-.268a2.816 2.816 0 1 0-.063-1.418l-7.223.267a9.217 9.217 0 0 0-4.107-6.655l1.356-2.461a4.26 4.26 0 1 0-1.242-.683l-1.356 2.464a9.152 9.152 0 0 0-9.792 1.394l-3.413-3.413a7.1 7.1 0 1 0-1 1l3.413 3.413a9.116 9.116 0 0 0-2.061 7.693l-6.23 1.679a3.517 3.517 0 1 0 .391 1.585c0-.071-.017-.142-.022-.213l6.231-1.677a9.254 9.254 0 0 0 3.941 4.821l-1.5 3A4.974 4.974 0 1 0 18 34.5l1.5-3a9.164 9.164 0 0 0 9.463-1.541l3.413 3.413a7.086 7.086 0 1 0 5.487-2.606zm4.254-9.926a1.418 1.418 0 1 1-1.418 1.418 1.418 1.418 0 0 1 1.418-1.418zM30.769 5.953a2.836 2.836 0 1 1-2.836 2.836 2.836 2.836 0 0 1 2.836-2.836zM4.536 30.059a2.127 2.127 0 1 1 2.127-2.127 2.127 2.127 0 0 1-2.127 2.127zm14.18 8.508a3.545 3.545 0 1 1-3.545-3.545 3.545 3.545 0 0 1 3.545 3.545zM2.409 8.08a5.672 5.672 0 1 1 9.874 3.8.693.693 0 0 0 .052-.251 4.224 4.224 0 0 0-1.245-3.012 4.276 4.276 0 0 0-.953-.718 2.836 2.836 0 1 0-4.1 0 4.254 4.254 0 0 0-2.206 3.726.709.709 0 0 0 .05.249A5.644 5.644 0 0 1 2.409 8.08zm5.672-.709A1.418 1.418 0 1 1 9.5 5.953a1.418 1.418 0 0 1-1.419 1.418zm0 1.418a2.836 2.836 0 0 1 2.746 2.127H5.334a2.841 2.841 0 0 1 2.747-2.127zm-3.793 3.5a.7.7 0 0 0 .248.05h7.09a.693.693 0 0 0 .252-.051 5.637 5.637 0 0 1-7.586 0zm10.883 10.68a7.8 7.8 0 1 1 7.8 7.8 7.8 7.8 0 0 1-7.8-7.8zm18.895 19.093a.7.7 0 0 0 .248.05H41.4a.693.693 0 0 0 .252-.051 5.637 5.637 0 0 1-7.586 0zm3.793-4.913a1.418 1.418 0 1 1 1.418-1.418 1.418 1.418 0 0 1-1.418 1.418zm0 1.418a2.836 2.836 0 0 1 2.741 2.127h-5.488a2.841 2.841 0 0 1 2.747-2.127zm4.2 3.087a.693.693 0 0 0 .052-.251 4.224 4.224 0 0 0-1.245-3.008 4.276 4.276 0 0 0-.953-.718 2.836 2.836 0 1 0-4.1 0A4.254 4.254 0 0 0 33.6 41.4a.709.709 0 0 0 .05.249 5.672 5.672 0 1 1 8.407 0z"/>
    </g>
</svg>
