<svg xmlns="http://www.w3.org/2000/svg" width="47.823" height="47.824">
    <defs>
        <style>
            .cls-1{fill:#07c7a2}
        </style>
    </defs>
    <g id="contract" transform="translate(.001)">
        <path id="Path_5471" data-name="Path 5471" class="cls-1" d="M173.484 163.985h-1.305l-4.56-3.8a.8.8 0 0 0-.511-.185h-12.754a.8.8 0 0 0-.8.8v.8h-8.768a.8.8 0 0 0-.8.8v7.174a.8.8 0 0 0 .8.8h1.264l1.594 1.594-1.031 1.031a.8.8 0 0 0 0 1.127l9.565 9.565a.8.8 0 0 0 1.127 0l1.828-1.828.234.234a.8.8 0 0 0 1.127 0l8.534-8.534h4.452a.8.8 0 0 0 .8-.8v-7.971a.8.8 0 0 0-.796-.807zm-24.146 8.534.234-.234 1.264 1.264-1.264 1.264-1.264-1.264zm2.625 2.158 1.264 1.264-1.264 1.264-1.264-1.264zm2.391 2.391 1.264 1.264-1.264 1.264-1.264-1.264zm2.391 4.919-1.264-1.264 1.264-1.264 1.264 1.264zm8.768-7.174-3.422-3.422a.8.8 0 0 0-1.127 1.127l3.422 3.422-1.264 1.264-3.422-3.422a.8.8 0 0 0-1.127 1.127l3.422 3.422-2.061 2.061-9.8-9.8a.8.8 0 0 0-1.127 0l-.234.234-1.826-1.826a.8.8 0 0 0-.564-.234h-.8v-5.579h7.971v.8a.8.8 0 0 0 .8.8h5.246l7.971 7.971zm7.174-2.858h-3.655l-8.534-8.534a.8.8 0 0 0-.564-.234h-4.782v-1.594h11.668l4.56 3.8a.8.8 0 0 0 .511.185h.8zm0 0" transform="translate(-129.646 -144.059)"/>
        <path id="Path_5472" data-name="Path 5472" class="cls-1" d="M208.788 27.158a.8.8 0 1 0 0 1.594h14.347a.8.8 0 0 0 0-1.594h-1.594v-4.782h1.594a.8.8 0 0 0 .443-1.46l-7.178-4.783a.8.8 0 0 0-.885 0l-7.174 4.782a.8.8 0 0 0 .443 1.46h1.594v4.782zm6.377 0v-1.594h1.594v1.594zm.8-9.405 4.543 3.029h-9.087zm-3.985 4.623h7.971v4.782h-1.594v-2.391a.8.8 0 0 0-.8-.8h-3.188a.8.8 0 0 0-.8.8v2.391h-1.594zm0 0" transform="translate(-187.269 -14.405)"/>
        <path id="Path_5473" data-name="Path 5473" class="cls-1" d="M360.76 384h-7.971a.8.8 0 0 0 0 1.594h7.971a.8.8 0 1 0 0-1.594zm0 0" transform="translate(-316.922 -345.741)"/>
        <path id="Path_5474" data-name="Path 5474" class="cls-1" d="M360.76 416h-7.971a.8.8 0 0 0 0 1.594h7.971a.8.8 0 0 0 0-1.594zm0 0" transform="translate(-316.922 -374.552)"/>
        <path id="Path_5475" data-name="Path 5475" class="cls-1" d="M47.772 6.918a.734.734 0 0 0-.026-.074.792.792 0 0 0-.159-.234L41.21.234a.777.777 0 0 0-.233-.16.683.683 0 0 0-.077-.028.8.8 0 0 0-.2-.04c-.011 0-.027-.006-.046-.006H11.955a.8.8 0 0 0-.8.8v1.79L.577 5.611A.8.8 0 0 0 .04 6.628l11.118 33.354v7.045a.8.8 0 0 0 .8.8h35.068a.8.8 0 0 0 .8-.8V7.174a1.728 1.728 0 0 0-.051-.256zM45.1 6.377h-3.654V2.721zm-43.285.537 9.342-2.669v30.7zM12.752 46.23V1.594h27.1v5.58a.8.8 0 0 0 .8.8h5.579V46.23zm0 0"/>
    </g>
</svg>
