<svg xmlns="http://www.w3.org/2000/svg" width="46.004" height="46.016">
    <defs>
        <style>
            .cls-1{fill:#07c7a2}
        </style>
    </defs>
    <g id="Page-1" transform="translate(0 .016)">
        <g id="_017---Bills" data-name="017---Bills" transform="translate(0 -.016)">
            <path id="Shape" class="cls-1" d="M38.941 36.8a1.533 1.533 0 0 0 2.164 0l2.715-2.7a1.541 1.541 0 0 0 0-2.173l-3.193-3.2v-8.562a1.533 1.533 0 0 0-1.533-1.533H35.26a1.533 1.533 0 0 0-1.533 1.533v1.661l-2.447-2.448a10.734 10.734 0 1 0-15.04 0L3.7 31.921a1.541 1.541 0 0 0 0 2.174L6.411 36.8a1.533 1.533 0 0 0 2.165 0l.613-.613v9.277H6.125a.767.767 0 0 0 0 1.533h35.27a.767.767 0 1 0 0-1.533h-3.068v-9.275zM35.26 20.165h3.834v7.028l-3.834-3.834zm7.479 12.844-2.712 2.707-1.921-1.916-.008-.006-11.676-11.677A10.677 10.677 0 0 0 30.1 20.37zM14.559 11.73a9.2 9.2 0 1 1 9.2 9.2 9.2 9.2 0 0 1-9.2-9.2zM7.494 35.715l-2.714-2.71L17.415 20.37a10.674 10.674 0 0 0 3.68 1.747L9.422 33.786l-.015.015zm13.2 9.751V42.4a3.067 3.067 0 1 1 6.134 0v3.067zm16.1 0H28.36V42.4a4.6 4.6 0 1 0-9.2 0v3.067h-8.435V34.656L22.96 22.424c.265.02.53.041.8.041s.537-.021.8-.041l12.234 12.232z" transform="translate(-.757 -.984)"/>
            <path id="Shape-2" data-name="Shape" class="cls-1" d="M.767 60.533H2.3A.767.767 0 1 0 2.3 59H.767a.767.767 0 1 0 0 1.533z" transform="translate(0 -14.517)"/>
            <path id="Shape-3" data-name="Shape" class="cls-1" d="M56.767 60.533H58.3a.767.767 0 1 0 0-1.533h-1.533a.767.767 0 0 0 0 1.533z" transform="translate(-13.063 -14.517)"/>
            <path id="Shape-4" data-name="Shape" class="cls-1" d="M26.533 15.584a.767.767 0 0 0-1.533 0 3.569 3.569 0 0 0 3.067 3.381v.07a.767.767 0 1 0 1.533 0v-.07a3.569 3.569 0 0 0 3.067-3.381A3.569 3.569 0 0 0 29.6 12.2V8.418a1.974 1.974 0 0 1 1.533 1.8.767.767 0 1 0 1.533 0A3.569 3.569 0 0 0 29.6 6.837v-.07a.767.767 0 1 0-1.533 0v.07A3.569 3.569 0 0 0 25 10.217a3.569 3.569 0 0 0 3.067 3.383v3.785a1.974 1.974 0 0 1-1.533-1.8zm4.6 0a1.974 1.974 0 0 1-1.533 1.8v-3.6a1.974 1.974 0 0 1 1.533 1.8zm-4.6-5.367a1.974 1.974 0 0 1 1.533-1.8v3.6a1.974 1.974 0 0 1-1.533-1.8z" transform="translate(-5.832 -2.154)"/>
            <path id="Shape-5" data-name="Shape" class="cls-1" d="M24.767 35a.767.767 0 0 0-.767.767v7.667a.767.767 0 0 0 .767.767h7.667a.767.767 0 0 0 .767-.767v-7.667a.767.767 0 0 0-.767-.767zm6.9 3.834h-2.3v-2.3h2.3zm-3.834-2.3v2.3h-2.3v-2.3zm-2.3 3.834h2.3v2.3h-2.3zm3.834 2.3v-2.3h2.3v2.3z" transform="translate(-5.598 -8.919)"/>
            <circle id="Oval" class="cls-1" cx=".767" cy=".767" r=".767" transform="translate(23.769 41.416)"/>
            <path id="Shape-6" data-name="Shape" class="cls-1" d="M9 14.767a.767.767 0 0 0 .767.767h2.3a.767.767 0 0 0 0-1.533h-2.3a.767.767 0 0 0-.767.766z" transform="translate(-2.099 -4.02)"/>
            <path id="Shape-7" data-name="Shape" class="cls-1" d="M46 14.767a.767.767 0 0 0 .767.767h2.3a.767.767 0 0 0 0-1.533h-2.3a.767.767 0 0 0-.767.766z" transform="translate(-10.73 -4.02)"/>
            <path id="Shape-8" data-name="Shape" class="cls-1" d="m14.053 22.6-1.994 1.15a.767.767 0 1 0 .767 1.328l1.994-1.15a.767.767 0 1 0-.767-1.328z" transform="translate(-2.723 -6.002)"/>
            <path id="Shape-9" data-name="Shape" class="cls-1" d="m46.1 4.1-2 1.152a.767.767 0 1 0 .767 1.328l1.994-1.15A.767.767 0 1 0 46.1 4.1z" transform="translate(-10.197 -1.687)"/>
            <path id="Shape-10" data-name="Shape" class="cls-1" d="M14.819 5.252 12.826 4.1a.767.767 0 1 0-.767 1.328l1.994 1.15a.767.767 0 1 0 .767-1.328z" transform="translate(-2.723 -1.687)"/>
        </g>
    </g>
</svg>
