<svg xmlns="http://www.w3.org/2000/svg" width="39.94" height="46.017">
    <defs>
        <style>
            .cls-1{fill:#07c7a2}
        </style>
    </defs>
    <g id="rental" transform="translate(-32.864)">
        <g id="Group_16551" data-name="Group 16551" transform="translate(32.864)">
            <g id="Group_16550" data-name="Group 16550">
                <path id="Path_5451" data-name="Path 5451" class="cls-1" d="m52.834 0-9.615 6.657V4.6H37.3v6.155l-4.438 3.072v6.237l2.219-1.536V40.1h4.438v5.917h26.628V40.1h4.438V18.526l2.215 1.536v-6.237zM38.781 6.077h2.959v1.6l-2.959 2.051zm25.887 38.461H41v-20.71h7.4V23.8a7.349 7.349 0 0 0 1.479.886v.624h-7.4V40.1h20.71V25.307h-7.4v-.624a7.315 7.315 0 0 0 1.479-.886v.031h7.4zM51.049 28.266l-1.479 1.479 1.479 1.479-1.173 1.176v2.092l2.959 2.959 2.959-2.959v-7.7h5.916v11.829H43.958V26.786h5.917v.306zm3.757-4.782-.493.175v10.218l-1.479 1.479-1.479-1.479v-.867l1.785-1.785-1.479-1.479 1.479-1.479-1.785-1.787v-2.822l-.493-.174a5.918 5.918 0 1 1 3.944 0zm14.3 15.137h-2.959V22.349h-7.426a7.4 7.4 0 1 0-11.773 0h-7.427v16.272h-2.959V17.5L52.834 6.237 69.106 17.5zm2.219-21.381L52.834 4.438l-18.491 12.8V14.6L52.834 1.8l18.491 12.8z" transform="translate(-32.864)"/>
            </g>
        </g>
        <g id="Group_16553" data-name="Group 16553" transform="translate(49.876 13.473)">
            <g id="Group_16552" data-name="Group 16552">
                <path id="Path_5452" data-name="Path 5452" class="cls-1" d="M219.823 145.728a2.959 2.959 0 1 0 2.959 2.959 2.962 2.962 0 0 0-2.959-2.959zm0 4.438a1.479 1.479 0 1 1 1.479-1.479 1.481 1.481 0 0 1-1.479 1.479z" transform="translate(-216.864 -145.728)"/>
            </g>
        </g>
        <g id="Group_16555" data-name="Group 16555" transform="translate(42.479 41.579)">
            <g id="Group_16554" data-name="Group 16554">
                <path id="Rectangle_2489" data-name="Rectangle 2489" class="cls-1" d="M0 0h17.751v1.479H0z"/>
            </g>
        </g>
        <g id="Group_16557" data-name="Group 16557" transform="translate(61.71 41.579)">
            <g id="Group_16556" data-name="Group 16556">
                <path id="Rectangle_2490" data-name="Rectangle 2490" class="cls-1" d="M0 0h1.479v1.479H0z"/>
            </g>
        </g>
    </g>
</svg>
