<svg xmlns="http://www.w3.org/2000/svg" width="40.788" height="40.788">
    <defs>
        <style>
            .cls-1{fill:#07c7a2}
        </style>
    </defs>
    <g id="rental_1_" data-name="rental (1)" transform="translate(-1 -1)">
        <path id="Path_5453" data-name="Path 5453" class="cls-1" d="M41.13 7.579h-7.236V1.658A.658.658 0 0 0 33.236 1H1.658A.658.658 0 0 0 1 1.658v35.525a4.611 4.611 0 0 0 4.605 4.605h31.578a4.611 4.611 0 0 0 4.605-4.605V8.237a.658.658 0 0 0-.658-.658zM5.605 40.472a3.293 3.293 0 0 1-3.289-3.289V2.316h30.262v34.867a4.592 4.592 0 0 0 1.385 3.289zm34.867-3.289a3.289 3.289 0 0 1-6.579 0V8.894h6.579z"/>
        <path id="Path_5454" data-name="Path 5454" class="cls-1" d="M33 29h9.21v1.316H33z" transform="translate(-10.948 -9.58)"/>
        <path id="Path_5455" data-name="Path 5455" class="cls-1" d="M33 33h9.21v1.316H33z" transform="translate(-10.948 -10.948)"/>
        <path id="Path_5456" data-name="Path 5456" class="cls-1" d="M33 37h9.21v1.316H33z" transform="translate(-10.948 -12.317)"/>
        <path id="Path_5457" data-name="Path 5457" class="cls-1" d="M28.683 19.473a.658.658 0 0 0 .658-.658v-7.236h2.631a.658.658 0 0 0 .244-1.269L19.059 5.047a.659.659 0 0 0-.488 0L5.414 10.31a.658.658 0 0 0 .244 1.269h2.631v7.237a.658.658 0 0 0 .658.658zM18.815 6.366l9.742 3.9H9.074zm9.21 5.212v6.579H9.605v-6.578z" transform="translate(-1.369 -1.368)"/>
        <path id="Path_5458" data-name="Path 5458" class="cls-1" d="M28.763 44.316h-7.237a.655.655 0 0 0-.465.193l-3.29 3.291a.657.657 0 0 0 0 .93l.851.851h-6.964a.658.658 0 0 0-.658.658v2.631a.658.658 0 0 0 .658.658h9.868a.655.655 0 0 0 .465-.193l3.754-3.754h3.017v1.316h1.316V43h-1.315zm-3.289 3.947a.655.655 0 0 0-.465.193l-3.755 3.754h-8.938v-1.316h7.894a.656.656 0 0 0 .465-.193l1.974-1.974-.93-.93-1.509 1.509-1.043-1.043 2.633-2.632h6.964v2.631z" transform="translate(-3.421 -14.369)"/>
        <path id="Path_5459" data-name="Path 5459" class="cls-1" d="M19.579 32.289a3.289 3.289 0 1 0-3.947 3.223v6.645h1.316v-1.315h1.316v-1.316h-1.317V38.21h1.316v-1.316h-1.316v-1.382a3.3 3.3 0 0 0 2.632-3.223zm-5.263 0a1.974 1.974 0 1 1 1.974 1.974 1.976 1.976 0 0 1-1.974-1.974z" transform="translate(-4.106 -9.58)"/>
    </g>
</svg>
