<svg xmlns="http://www.w3.org/2000/svg" width="45.42" height="45.531">
    <defs>
        <style>
            .cls-1{fill:#07c7a2}
        </style>
    </defs>
    <g id="search" transform="translate(-.622)">
        <g id="Group_16560" data-name="Group 16560" transform="translate(.622 -.001)">
            <g id="Group_16559" data-name="Group 16559">
                <path id="Path_5467" data-name="Path 5467" class="cls-1" d="M34.01 14.779a16.645 16.645 0 0 0-4.8-9.862 16.833 16.833 0 0 0-23.778 0 16.646 16.646 0 0 0-4.8 9.859.665.665 0 0 0 1.321.16 15.326 15.326 0 0 1 4.418-9.079 15.5 15.5 0 0 1 21.9 0 15.325 15.325 0 0 1 4.422 9.081.666.666 0 0 0 .66.586.688.688 0 0 0 .081 0 .666.666 0 0 0 .576-.745z" transform="translate(-.622 .001)"/>
            </g>
        </g>
        <g id="Group_16562" data-name="Group 16562" transform="translate(3.41 2.897)">
            <g id="Group_16561" data-name="Group 16561">
                <path id="Path_5468" data-name="Path 5468" class="cls-1" d="M55.721 36.653a13.908 13.908 0 1 0 0 19.678 13.931 13.931 0 0 0 0-19.678zM54.78 55.39a12.584 12.584 0 1 1 3.686-8.9 12.6 12.6 0 0 1-3.686 8.9z" transform="translate(-31.974 -32.584)"/>
            </g>
        </g>
        <g id="Group_16564" data-name="Group 16564" transform="translate(.654 18.338)">
            <g id="Group_16563" data-name="Group 16563">
                <path id="Path_5469" data-name="Path 5469" class="cls-1" d="M45.766 227.776 35.3 217.31a2.066 2.066 0 0 0-2.378-.387l-1.966-1.966a16.635 16.635 0 0 0 3.345-7.97.665.665 0 1 0-1.318-.182 15.317 15.317 0 0 1-3.417 7.757l-.015.016c-.231.277-.469.544-.713.8q-.122.127-.245.25a12.668 12.668 0 0 1-.438.419l-.085.079-.225.2-.041.036-.237.2a15.5 15.5 0 0 1-20.867-.934 15.344 15.344 0 0 1-4.392-8.84.665.665 0 0 0-1.319.18A16.825 16.825 0 0 0 27.92 217.99l1.967 1.967a2.06 2.06 0 0 0 .387 2.378L40.74 232.8a2.063 2.063 0 0 0 2.918 0l2.108-2.107a2.066 2.066 0 0 0 0-2.917zm-16.822-10.644q.151-.137.3-.279l.041-.04a14.297 14.297 0 0 0 .531-.532l.008-.008q.139-.146.274-.294l1.808 1.808-1.152 1.152zm15.881 12.621-2.108 2.108a.732.732 0 0 1-1.036 0l-10.466-10.467a.733.733 0 0 1 0-1.036l.007-.007 2.1-2.1a.733.733 0 0 1 1.036 0l10.466 10.466a.733.733 0 0 1 .001 1.036z" transform="translate(-.98 -206.213)"/>
            </g>
        </g>
        <g id="Group_16566" data-name="Group 16566" transform="translate(6.409 5.329)">
            <g id="Group_16565" data-name="Group 16565">
                <path id="Path_5470" data-name="Path 5470" class="cls-1" d="m87.593 69.356-9.568-8.988a1.64 1.64 0 0 0-2.242 0l-9.568 8.988a1.638 1.638 0 0 0 1.07 2.83h.052a1.626 1.626 0 0 0 1.12-.444l.7-.661v8.185a1.15 1.15 0 0 0 1.149 1.149H83.5a1.15 1.15 0 0 0 1.149-1.149v-8.184l.7.661a1.637 1.637 0 1 0 2.242-2.387zm-9.229 9.729h-2.92v-7.576h2.92zm4.952 0h-3.621v-7.933a.975.975 0 0 0-.974-.974h-3.634a.975.975 0 0 0-.974.974v7.933h-3.621v-9.254l6.408-6.023 6.412 6.024zm3.384-8.326a.307.307 0 0 1-.433.013l-8.9-8.363a.666.666 0 0 0-.911 0l-8.9 8.363a.307.307 0 0 1-.42-.447l9.568-8.988a.307.307 0 0 1 .42 0l9.568 8.988a.306.306 0 0 1 .013.433z" transform="translate(-65.699 -59.925)"/>
            </g>
        </g>
    </g>
</svg>
