<svg xmlns="http://www.w3.org/2000/svg" width="62" height="62" viewBox="0 0 62 62">
  <g id="Group_16434" data-name="Group 16434" transform="translate(-120 -2893)">
    <rect id="Rectangle_472" data-name="Rectangle 472" width="62" height="62" rx="12" transform="translate(120 2893)" fill="white"/>
    <g id="Icons" transform="translate(131 2902)">
      <path id="Path_2955" data-name="Path 2955" d="M3.749,58.056H42.711a.749.749,0,0,0,.749-.749V55.67a2.2,2.2,0,0,1-2.248-.436,2.243,2.243,0,0,1-3,0,2.243,2.243,0,0,1-3,0,2.243,2.243,0,0,1-3,0,2.243,2.243,0,0,1-3,0,2.243,2.243,0,0,1-3,0,2.243,2.243,0,0,1-3,0,2.243,2.243,0,0,1-3,0,2.243,2.243,0,0,1-3,0,2.243,2.243,0,0,1-3,0,2.243,2.243,0,0,1-3,0,2.243,2.243,0,0,1-3,0,2.243,2.243,0,0,1-3,0A2.2,2.2,0,0,1,3,55.67v1.636A.749.749,0,0,0,3.749,58.056Z" transform="translate(-3 -14.599)" fill="#00dbb1"/>
      <path id="Path_2956" data-name="Path 2956" d="M3.749,51.994a.749.749,0,0,0,.749-.749.749.749,0,1,1,1.5,0,.749.749,0,0,0,1.5,0,.749.749,0,1,1,1.5,0,.749.749,0,0,0,1.5,0,.749.749,0,1,1,1.5,0,.749.749,0,0,0,1.5,0,.749.749,0,1,1,1.5,0,.749.749,0,0,0,1.5,0,.749.749,0,1,1,1.5,0,.749.749,0,0,0,1.5,0,.749.749,0,1,1,1.5,0,.749.749,0,0,0,1.5,0,.749.749,0,1,1,1.5,0,.749.749,0,0,0,1.5,0,.749.749,0,1,1,1.5,0,.749.749,0,0,0,1.5,0,.749.749,0,1,1,1.5,0,.749.749,0,0,0,1.5,0,.749.749,0,1,1,1.5,0,.749.749,0,0,0,1.5,0,.749.749,0,1,1,1.5,0,.749.749,0,0,0,1.5,0,.749.749,0,1,1,1.5,0,.749.749,0,0,0,1.5,0,.749.749,0,1,1,1.5,0,.749.749,0,0,0,1.5,0V49a.749.749,0,0,0-.749-.749h-3V46H6.746v2.248h-3A.749.749,0,0,0,3,49v2.248A.749.749,0,0,0,3.749,51.994Z" transform="translate(-3 -12.284)" fill="#00dbb1"/>
      <path id="Path_2957" data-name="Path 2957" d="M6.479,17.484h.952v2.248H40.4V17.484h.952a.749.749,0,0,0,.487-1.319l-5.185-4.391V1.749A.749.749,0,0,0,35.9,1h-4.5a.749.749,0,0,0-.749.749v4.96L24.4,1.412a.749.749,0,0,0-.974,0L5.992,16.165a.749.749,0,0,0,.487,1.319Z" transform="translate(-3.685 -1)" fill="#00dbb1"/>
      <path id="Path_2958" data-name="Path 2958" d="M25.8,34.848l-.6,1.612H26.4Z" transform="translate(-8.565 -9.487)" fill="#00dbb1"/>
      <path id="Path_2959" data-name="Path 2959" d="M6.5,39.988H40.964a1.5,1.5,0,0,0,1.5-1.5V29.5a1.5,1.5,0,0,0-1.5-1.5H6.5A1.5,1.5,0,0,0,5,29.5V38.49A1.5,1.5,0,0,0,6.5,39.988ZM31.224,31a.749.749,0,0,1,.749-.749h3a.749.749,0,0,1,0,1.5H32.722v1.5h1.5a.749.749,0,0,1,0,1.5h-1.5v1.5H34.97a.749.749,0,0,1,0,1.5h-3a.749.749,0,0,1-.749-.749ZM25.23,31a.749.749,0,1,1,1.5,0v5.245h2.248a.749.749,0,0,1,0,1.5h-3a.749.749,0,0,1-.749-.749Zm-7.445,5.731,2.248-5.994a.749.749,0,0,1,1.4,0l2.248,5.994a.749.749,0,0,1-.438.965.778.778,0,0,1-.264.047.749.749,0,0,1-.7-.486L21.9,36.242H19.568l-.379,1.012a.749.749,0,1,1-1.4-.524Zm-3.793-6.48a2.255,2.255,0,0,1,1.948,1.124.749.749,0,0,1-1.3.749.749.749,0,1,0-.651,1.124,2.248,2.248,0,1,1-1.948,3.372.749.749,0,1,1,1.3-.749.749.749,0,1,0,.651-1.124,2.248,2.248,0,0,1,0-4.5Z" transform="translate(-3.501 -7.77)" fill="#00dbb1"/>
    </g>
  </g>
</svg>
