<svg id="Icons" xmlns="http://www.w3.org/2000/svg" width="40.46" height="43.457">
    <defs>
        <style>
            .cls-1{fill:#00dbb1}
        </style>
    </defs>
    <path id="Path_2960" data-name="Path 2960" class="cls-1" d="M3 57.306a.749.749 0 0 0 .749.749h38.962a.749.749 0 0 0 .749-.749V55.67a2.2 2.2 0 0 1-2.248-.436 2.243 2.243 0 0 1-3 0 2.243 2.243 0 0 1-3 0 2.243 2.243 0 0 1-3 0 2.243 2.243 0 0 1-3 0 2.243 2.243 0 0 1-3 0 2.243 2.243 0 0 1-3 0 2.243 2.243 0 0 1-3 0 2.243 2.243 0 0 1-3 0 2.243 2.243 0 0 1-3 0 2.243 2.243 0 0 1-3 0 2.243 2.243 0 0 1-3 0 2.243 2.243 0 0 1-3 0A2.2 2.2 0 0 1 3 55.67z" transform="translate(-3 -14.599)"/>
    <path id="Path_2961" data-name="Path 2961" class="cls-1" d="M3 49v2.248a.749.749 0 0 0 1.5 0 .749.749 0 1 1 1.5 0 .749.749 0 0 0 1.5 0 .749.749 0 1 1 1.5 0 .749.749 0 0 0 1.5 0 .749.749 0 1 1 1.5 0 .749.749 0 0 0 1.5 0 .749.749 0 1 1 1.5 0 .749.749 0 0 0 1.5 0 .749.749 0 1 1 1.5 0 .749.749 0 0 0 1.5 0 .749.749 0 1 1 1.5 0 .749.749 0 0 0 1.5 0 .749.749 0 1 1 1.5 0 .749.749 0 0 0 1.5 0 .749.749 0 1 1 1.5 0 .749.749 0 0 0 1.5 0 .749.749 0 1 1 1.5 0 .749.749 0 0 0 1.5 0 .749.749 0 1 1 1.5 0 .749.749 0 0 0 1.5 0 .749.749 0 1 1 1.5 0 .749.749 0 0 0 1.5 0 .749.749 0 1 1 1.5 0 .749.749 0 0 0 1.5 0 .749.749 0 1 1 1.5 0 .749.749 0 0 0 1.5 0V49a.749.749 0 0 0-.749-.749h-3V46H6.746v2.248h-3A.749.749 0 0 0 3 49z" transform="translate(-3 -12.284)"/>
    <path id="Path_2962" data-name="Path 2962" class="cls-1" d="M35.9 1h-4.5a.749.749 0 0 0-.749.749v4.96L24.4 1.412a.749.749 0 0 0-.974 0L5.992 16.165a.749.749 0 0 0 .487 1.319h.952v2.248H40.4v-2.248h.952a.749.749 0 0 0 .487-1.319l-5.185-4.391V1.749A.749.749 0 0 0 35.9 1z" transform="translate(-3.685 -1)"/>
    <path id="Path_2963" data-name="Path 2963" class="cls-1" d="M43.248 36v-1.5c0-.812-.515-1.5-1.124-1.5H41v4.5h1.124c.609 0 1.124-.691 1.124-1.5z" transform="translate(-12.528 -9.024)"/>
    <rect id="Rectangle_471" data-name="Rectangle 471" class="cls-1" width="3" height="5" rx="1" transform="translate(15.254 23.728)"/>
    <path id="Path_2964" data-name="Path 2964" class="cls-1" d="M5 29.5v8.99a1.5 1.5 0 0 0 1.5 1.5h34.464a1.5 1.5 0 0 0 1.5-1.5V29.5a1.5 1.5 0 0 0-1.5-1.5H6.5A1.5 1.5 0 0 0 5 29.5zM30.475 31a.749.749 0 0 1 .749-.749H33.1a2.831 2.831 0 0 1 2.622 3v1.5a2.831 2.831 0 0 1-2.622 3h-1.876a.749.749 0 0 1-.749-.749zm-5.994 0a.749.749 0 1 1 1.5 0v5.245h2.248a.749.749 0 0 1 0 1.5h-3a.749.749 0 0 1-.749-.749zm-6.743 1.5a2.248 2.248 0 0 1 2.248-2.248h.749a2.248 2.248 0 0 1 2.247 2.248v3a2.248 2.248 0 0 1-2.248 2.248h-.749a2.248 2.248 0 0 1-2.248-2.248zm-3.746-2.248a2.255 2.255 0 0 1 1.948 1.124.749.749 0 0 1-1.3.749.749.749 0 1 0-.651 1.124 2.248 2.248 0 1 1-1.948 3.372.749.749 0 1 1 1.3-.749.749.749 0 1 0 .651-1.124 2.248 2.248 0 0 1 0-4.5z" transform="translate(-3.501 -7.77)"/>
</svg>
