<svg width="512" height="512" viewBox="0 0 512 512" fill="none" xmlns="http://www.w3.org/2000/svg">
<path d="M184 448H152V432H216C218.122 432 220.156 431.157 221.657 429.657C223.157 428.156 224 426.122 224 424V312C224 309.878 223.157 307.844 221.657 306.343C220.156 304.843 218.122 304 216 304H24C21.8783 304 19.8435 304.843 18.3433 306.343C16.843 307.844 16.0001 309.878 16 312V424C16.0001 426.122 16.843 428.156 18.3433 429.657C19.8435 431.157 21.8783 432 24 432H88V448H56C53.8783 448 51.8435 448.843 50.3433 450.343C48.843 451.844 48.0001 453.878 48 456V488C48.0001 490.122 48.843 492.156 50.3433 493.657C51.8435 495.157 53.8783 496 56 496H184C186.122 496 188.156 495.157 189.657 493.657C191.157 492.156 192 490.122 192 488V456C192 453.878 191.157 451.844 189.657 450.343C188.156 448.843 186.122 448 184 448V448ZM32 320H208V416H32V320ZM104 432H136V448H104V432ZM176 480H64V464H176V480Z" fill="#00DBB1"/>
<path d="M208 480H256V496H208V480Z" fill="#00DBB1"/>
<path d="M312 184H328V208H312V184Z" fill="#00DBB1"/>
<path d="M104 160H296V144H104V32H312V40H328V24C328 21.8783 327.157 19.8435 325.657 18.3433C324.156 16.843 322.122 16.0001 320 16H96C93.8783 16.0001 91.8435 16.843 90.3433 18.3433C88.843 19.8435 88.0001 21.8783 88 24V288H104V160Z" fill="#00DBB1"/>
<path d="M120 64H136V112H120V64Z" fill="#00DBB1"/>
<path d="M120 184H136V240H120V184Z" fill="#00DBB1"/>
<path d="M472 224H280C277.878 224 275.844 224.843 274.343 226.343C272.843 227.844 272 229.878 272 232V488C272 490.122 272.843 492.156 274.343 493.657C275.844 495.157 277.878 496 280 496H472C474.122 496 476.156 495.157 477.657 493.657C479.157 492.156 480 490.122 480 488V232C480 229.878 479.157 227.844 477.657 226.343C476.156 224.843 474.122 224 472 224ZM464 264H440V240H464V264ZM312 240V264H288V240H312ZM288 280H320C322.122 280 324.156 279.157 325.657 277.657C327.157 276.156 328 274.122 328 272V240H424V272C424 274.122 424.843 276.156 426.343 277.657C427.844 279.157 429.878 280 432 280H464V440H432C429.878 440 427.844 440.843 426.343 442.343C424.843 443.844 424 445.878 424 448V480H288V280ZM440 480V456H464V480H440Z" fill="#00DBB1"/>
<path d="M456 360C456 344.178 451.308 328.71 442.518 315.554C433.727 302.398 421.233 292.145 406.615 286.09C391.997 280.035 375.911 278.45 360.393 281.537C344.874 284.624 330.62 292.243 319.432 303.431C308.243 314.62 300.624 328.874 297.537 344.393C294.45 359.911 296.035 375.997 302.09 390.615C308.145 405.233 318.398 417.727 331.554 426.518C344.71 435.308 360.178 440 376 440C397.21 439.976 417.544 431.54 432.542 416.542C447.54 401.544 455.976 381.21 456 360ZM312 360C312 347.342 315.754 334.968 322.786 324.444C329.818 313.919 339.814 305.716 351.508 300.872C363.203 296.028 376.071 294.76 388.486 297.23C400.901 299.699 412.304 305.795 421.255 314.745C430.205 323.696 436.301 335.099 438.77 347.514C441.24 359.929 439.972 372.797 435.128 384.492C430.284 396.186 422.081 406.182 411.557 413.214C401.032 420.246 388.658 424 376 424C359.032 423.981 342.764 417.232 330.766 405.234C318.768 393.236 312.019 376.968 312 360V360Z" fill="#00DBB1"/>
<path d="M432 360C432 348.924 428.716 338.097 422.562 328.888C416.409 319.679 407.663 312.501 397.43 308.263C387.198 304.024 375.938 302.915 365.075 305.076C354.212 307.237 344.234 312.57 336.402 320.402C328.57 328.234 323.237 338.212 321.076 349.075C318.915 359.938 320.024 371.198 324.263 381.43C328.501 391.663 335.679 400.409 344.888 406.562C354.097 412.716 364.924 416 376 416C390.847 415.983 405.081 410.078 415.58 399.58C426.078 389.081 431.983 374.847 432 360V360ZM416 360C416.005 367.024 414.16 373.925 410.649 380.009C407.138 386.092 402.086 391.143 396.002 394.653C389.918 398.162 383.017 400.007 375.993 400C368.969 399.993 362.071 398.136 355.993 394.615C363.771 384.753 368 372.559 368 360C368 347.441 363.771 335.247 355.993 325.385C362.071 321.864 368.969 320.007 375.993 320C383.017 319.993 389.918 321.838 396.002 325.347C402.086 328.857 407.138 333.908 410.649 339.991C414.16 346.075 416.005 352.976 416 360V360ZM336 360C335.991 351.352 338.8 342.936 344.001 336.027C349.193 342.941 352 351.354 352 360C352 368.646 349.193 377.059 344.001 383.973C338.8 377.064 335.991 368.648 336 360Z" fill="#00DBB1"/>
<path d="M400 208C418.987 208 437.548 202.37 453.335 191.821C469.122 181.272 481.426 166.279 488.692 148.738C495.958 131.196 497.86 111.894 494.155 93.2713C490.451 74.6492 481.308 57.5436 467.882 44.1178C454.456 30.6919 437.351 21.5488 418.729 17.8446C400.106 14.1404 380.804 16.0416 363.262 23.3076C345.721 30.5736 330.728 42.8781 320.179 58.6653C309.63 74.4524 304 93.013 304 112C304.029 137.452 314.152 161.853 332.15 179.85C350.147 197.848 374.548 207.971 400 208V208ZM400 32C415.823 32 431.29 36.6919 444.446 45.4824C457.602 54.273 467.855 66.7672 473.91 81.3853C479.965 96.0034 481.55 112.089 478.463 127.607C475.376 143.126 467.757 157.38 456.569 168.569C445.38 179.757 431.126 187.376 415.607 190.463C400.089 193.55 384.003 191.965 369.385 185.91C354.767 179.855 342.273 169.602 333.482 156.446C324.692 143.29 320 127.823 320 112C320.024 90.79 328.46 70.4556 343.458 55.4579C358.456 40.4602 378.79 32.0239 400 32V32Z" fill="#00DBB1"/>
<path d="M376 152C377.051 152.001 378.091 151.795 379.062 151.393C380.033 150.991 380.915 150.401 381.657 149.657L453.657 77.6572L442.343 66.3428L376 132.687L357.657 114.343L346.343 125.657L370.343 149.657C371.085 150.401 371.967 150.991 372.938 151.393C373.909 151.795 374.949 152.001 376 152V152Z" fill="#00DBB1"/>
</svg>
