<svg id="calender" xmlns="http://www.w3.org/2000/svg" width="52.337" height="52.337" viewBox="0 0 52.337 52.337">
  <g id="Group_16578" data-name="Group 16578" transform="translate(0 0)">
    <g id="Group_16577" data-name="Group 16577">
      <path id="Path_5487" data-name="Path 5487" d="M47.226,4.5H42.354V3.067a3.067,3.067,0,1,0-6.133,0V4.5H19.047V3.067a3.067,3.067,0,1,0-6.133,0V4.536a1.02,1.02,0,0,0-.273-.038H8.568A5.117,5.117,0,0,0,3.457,9.609V27.02a1.022,1.022,0,1,0,2.044,0V15.027H42.354a1.022,1.022,0,0,0,0-2.044H5.5V9.609A3.07,3.07,0,0,1,8.568,6.542h4.073a1.024,1.024,0,0,0,.273-.038V7.82a3.067,3.067,0,1,0,6.133,0V6.542H36.22V7.82a3.067,3.067,0,1,0,6.133,0V6.542h4.873a3.07,3.07,0,0,1,3.067,3.067V48.452a1.841,1.841,0,1,1-3.681,0V45.808a1.022,1.022,0,0,0-1.022-1.022H33.7a1.022,1.022,0,1,0,0,2.044H44.567v1.622a3.861,3.861,0,0,0,.465,1.841H3.884a1.842,1.842,0,0,1-1.84-1.84V46.83h22.88a1.022,1.022,0,0,0,0-2.044H14.711a8.382,8.382,0,1,0-10.923,0H1.022A1.022,1.022,0,0,0,0,45.808v2.645a3.889,3.889,0,0,0,3.884,3.884H48.452a3.889,3.889,0,0,0,3.885-3.885V9.609A5.117,5.117,0,0,0,47.226,4.5ZM17,7.82a1.022,1.022,0,1,1-2.044,0V3.067a1.022,1.022,0,1,1,2.044,0Zm23.306,0a1.022,1.022,0,1,1-2.044,0V3.067a1.022,1.022,0,1,1,2.044,0ZM2.911,38.435a6.338,6.338,0,1,1,6.338,6.338A6.345,6.345,0,0,1,2.911,38.435Z" fill="#00dbb1"/>
    </g>
  </g>
  <g id="Group_16580" data-name="Group 16580" transform="translate(46.126 12.982)">
    <g id="Group_16579" data-name="Group 16579">
      <path id="Path_5488" data-name="Path 5488" d="M452.985,127.3a1.021,1.021,0,1,0,.3.723A1.03,1.03,0,0,0,452.985,127.3Z" transform="translate(-451.24 -127)" fill="#00dbb1"/>
    </g>
  </g>
  <g id="Group_16582" data-name="Group 16582" transform="translate(28.783 44.786)">
    <g id="Group_16581" data-name="Group 16581">
      <path id="Path_5489" data-name="Path 5489" d="M283.325,438.428a1.023,1.023,0,1,0,.3.723A1.028,1.028,0,0,0,283.325,438.428Z" transform="translate(-281.58 -438.13)" fill="#00dbb1"/>
    </g>
  </g>
  <g id="Group_16584" data-name="Group 16584" transform="translate(19.243 31.075)">
    <g id="Group_16583" data-name="Group 16583">
      <path id="Path_5490" data-name="Path 5490" d="M192.129,304a3.884,3.884,0,1,0,3.884,3.884A3.889,3.889,0,0,0,192.129,304Zm0,5.724a1.84,1.84,0,1,1,1.84-1.84A1.842,1.842,0,0,1,192.129,309.724Z" transform="translate(-188.245 -304)" fill="#00dbb1"/>
    </g>
  </g>
  <g id="Group_16586" data-name="Group 16586" transform="translate(28.783 31.075)">
    <g id="Group_16585" data-name="Group 16585">
      <path id="Path_5491" data-name="Path 5491" d="M285.462,304a3.884,3.884,0,1,0,3.884,3.884A3.889,3.889,0,0,0,285.462,304Zm0,5.724a1.84,1.84,0,1,1,1.84-1.84A1.842,1.842,0,0,1,285.462,309.724Z" transform="translate(-281.578 -304)" fill="#00dbb1"/>
    </g>
  </g>
  <g id="Group_16588" data-name="Group 16588" transform="translate(38.324 31.075)">
    <g id="Group_16587" data-name="Group 16587">
      <path id="Path_5492" data-name="Path 5492" d="M378.8,304a3.884,3.884,0,1,0,3.884,3.884A3.889,3.889,0,0,0,378.8,304Zm0,5.724a1.84,1.84,0,1,1,1.84-1.84A1.842,1.842,0,0,1,378.8,309.724Z" transform="translate(-374.912 -304)" fill="#00dbb1"/>
    </g>
  </g>
  <g id="Group_16590" data-name="Group 16590" transform="translate(9.702 20.444)">
    <g id="Group_16589" data-name="Group 16589">
      <path id="Path_5493" data-name="Path 5493" d="M98.8,200a3.884,3.884,0,1,0,3.884,3.884A3.889,3.889,0,0,0,98.8,200Zm0,5.724a1.84,1.84,0,1,1,1.84-1.84A1.842,1.842,0,0,1,98.8,205.724Z" transform="translate(-94.912 -200)" fill="#00dbb1"/>
    </g>
  </g>
  <g id="Group_16592" data-name="Group 16592" transform="translate(28.783 20.444)">
    <g id="Group_16591" data-name="Group 16591">
      <path id="Path_5494" data-name="Path 5494" d="M285.462,200a3.884,3.884,0,1,0,3.884,3.884A3.889,3.889,0,0,0,285.462,200Zm0,5.724a1.84,1.84,0,1,1,1.84-1.84A1.842,1.842,0,0,1,285.462,205.724Z" transform="translate(-281.578 -200)" fill="#00dbb1"/>
    </g>
  </g>
  <g id="Group_16594" data-name="Group 16594" transform="translate(38.324 20.444)">
    <g id="Group_16593" data-name="Group 16593">
      <path id="Path_5495" data-name="Path 5495" d="M378.8,200a3.884,3.884,0,1,0,3.884,3.884A3.889,3.889,0,0,0,378.8,200Zm0,5.724a1.84,1.84,0,1,1,1.84-1.84A1.842,1.842,0,0,1,378.8,205.724Z" transform="translate(-374.912 -200)" fill="#00dbb1"/>
    </g>
  </g>
  <g id="Group_16596" data-name="Group 16596" transform="translate(19.243 20.444)">
    <g id="Group_16595" data-name="Group 16595">
      <path id="Path_5496" data-name="Path 5496" d="M192.129,200a3.884,3.884,0,1,0,3.884,3.884A3.889,3.889,0,0,0,192.129,200Zm0,5.724a1.84,1.84,0,1,1,1.84-1.84A1.842,1.842,0,0,1,192.129,205.724Z" transform="translate(-188.245 -200)" fill="#00dbb1"/>
    </g>
  </g>
  <g id="Group_16598" data-name="Group 16598" transform="translate(5.233 35.645)">
    <g id="Group_16597" data-name="Group 16597">
      <path id="Path_5497" data-name="Path 5497" d="M58.852,349a1.022,1.022,0,0,0-1.446,0l-3.329,3.329-1.138-1.138a1.022,1.022,0,0,0-1.446,1.446l1.861,1.86a1.022,1.022,0,0,0,1.446,0l4.052-4.052A1.022,1.022,0,0,0,58.852,349Z" transform="translate(-51.194 -348.7)" fill="#00dbb1"/>
    </g>
  </g>
</svg>
