<svg width="512" height="512" viewBox="0 0 512 512" fill="none" xmlns="http://www.w3.org/2000/svg">
<path d="M440 80C442.122 80 444.157 79.1571 445.657 77.6569C447.157 76.1566 448 74.1217 448 72V56C447.988 45.395 443.77 35.2278 436.271 27.7289C428.772 20.23 418.605 16.0119 408 16H120C109.395 16.0119 99.2278 20.23 91.7289 27.7289C84.23 35.2278 80.0119 45.395 80 56V416H96V56C96.0074 49.6371 98.5384 43.5369 103.038 39.0376C107.537 34.5384 113.637 32.0074 120 32H376.019C370.806 38.9144 367.99 47.3406 368 56V456C368 462.365 365.471 468.47 360.971 472.971C356.47 477.471 350.365 480 344 480C337.635 480 331.53 477.471 327.029 472.971C322.529 468.47 320 462.365 320 456V440C320 437.878 319.157 435.843 317.657 434.343C316.157 432.843 314.122 432 312 432H24C21.8783 432 19.8434 432.843 18.3431 434.343C16.8429 435.843 16 437.878 16 440V456C16.0119 466.605 20.23 476.772 27.7289 484.271C35.2278 491.77 45.395 495.988 56 496H344C354.605 495.988 364.772 491.77 372.271 484.271C379.77 476.772 383.988 466.605 384 456V80H440ZM56 480C49.637 479.993 43.5367 477.462 39.0373 472.963C34.538 468.463 32.0071 462.363 32 456V448H304V456C303.99 464.659 306.806 473.086 312.019 480H56ZM408 32C414.363 32.0074 420.463 34.5384 424.962 39.0376C429.462 43.5369 431.993 49.6371 432 56V64H384V56C384.007 49.6371 386.538 43.5369 391.038 39.0376C395.537 34.5384 401.637 32.0074 408 32V32Z" fill="#00DBB1"/>
<path d="M184 104C183.958 107.196 184.667 110.358 186.07 113.23C187.473 116.102 189.531 118.604 192.078 120.536C191.686 123.701 192.021 126.914 193.057 129.93C194.094 132.946 195.805 135.685 198.06 137.94C200.315 140.196 203.054 141.906 206.07 142.943C209.086 143.979 212.299 144.314 215.464 143.922C217.424 146.438 219.933 148.473 222.798 149.873C225.664 151.272 228.811 152 232 152C235.189 152 238.336 151.272 241.202 149.873C244.067 148.473 246.576 146.438 248.536 143.922C251.701 144.315 254.914 143.98 257.93 142.943C260.946 141.907 263.686 140.196 265.941 137.941C268.196 135.686 269.907 132.946 270.943 129.93C271.98 126.914 272.315 123.701 271.922 120.536C274.438 118.576 276.473 116.067 277.873 113.202C279.272 110.336 280 107.189 280 104C280 100.811 279.272 97.6637 277.873 94.7982C276.473 91.9327 274.438 89.4243 271.922 87.464C272.315 84.299 271.98 81.0863 270.943 78.0702C269.907 75.0541 268.196 72.3142 265.941 70.0591C263.686 67.804 260.946 66.0931 257.93 65.0566C254.914 64.0202 251.701 63.6855 248.536 64.078C246.576 61.5625 244.067 59.5273 241.202 58.1275C238.336 56.7276 235.189 56 232 56C228.811 56 225.664 56.7276 222.798 58.1275C219.933 59.5273 217.424 61.5625 215.464 64.078C212.299 63.6855 209.086 64.0202 206.07 65.0566C203.054 66.0931 200.314 67.804 198.059 70.0591C195.804 72.3142 194.093 75.0541 193.057 78.0702C192.02 81.0863 191.686 84.299 192.078 87.464C189.531 89.3955 187.473 91.8981 186.07 94.7702C184.667 97.6423 183.958 100.804 184 104V104ZM203.711 99.356C204.96 99.0736 206.123 98.4955 207.102 97.6703C208.082 96.845 208.849 95.7967 209.338 94.6135C209.828 93.4303 210.027 92.1468 209.918 90.8708C209.809 89.5949 209.395 88.3638 208.711 87.281C208.134 86.3675 207.886 85.2849 208.005 84.2113C208.125 83.1376 208.607 82.1366 209.371 81.3727C210.135 80.6089 211.136 80.1276 212.209 80.0079C213.283 79.8882 214.366 80.1372 215.279 80.714C216.362 81.3978 217.593 81.8117 218.869 81.9209C220.145 82.0301 221.428 81.8314 222.612 81.3414C223.795 80.8515 224.843 80.0847 225.668 79.1054C226.494 78.1262 227.072 76.9631 227.354 75.714C227.592 74.6601 228.182 73.7186 229.025 73.044C229.869 72.3695 230.918 72.002 231.998 72.002C233.078 72.002 234.127 72.3695 234.971 73.044C235.815 73.7186 236.404 74.6601 236.642 75.714C236.924 76.9631 237.503 78.1262 238.328 79.1054C239.153 80.0847 240.201 80.8515 241.385 81.3414C242.568 81.8314 243.851 82.0301 245.127 81.9209C246.403 81.8117 247.634 81.3978 248.717 80.714C249.631 80.1372 250.713 79.8882 251.787 80.0079C252.86 80.1276 253.861 80.6089 254.625 81.3727C255.389 82.1366 255.871 83.1376 255.991 84.2113C256.111 85.2849 255.862 86.3675 255.285 87.281C254.601 88.3638 254.187 89.5949 254.078 90.8708C253.969 92.1468 254.168 93.4303 254.658 94.6135C255.148 95.7967 255.914 96.845 256.894 97.6703C257.873 98.4955 259.036 99.0736 260.285 99.356C261.339 99.594 262.28 100.183 262.955 101.027C263.63 101.871 263.997 102.92 263.997 104C263.997 105.08 263.63 106.129 262.955 106.973C262.28 107.817 261.339 108.406 260.285 108.644C259.036 108.926 257.873 109.504 256.894 110.33C255.914 111.155 255.148 112.203 254.658 113.386C254.168 114.57 253.969 115.853 254.078 117.129C254.187 118.405 254.601 119.636 255.285 120.719C255.862 121.633 256.111 122.715 255.991 123.789C255.872 124.863 255.39 125.865 254.626 126.629C253.862 127.393 252.86 127.874 251.786 127.993C250.712 128.113 249.63 127.863 248.716 127.286C247.633 126.602 246.402 126.189 245.126 126.08C243.851 125.971 242.567 126.169 241.384 126.659C240.201 127.149 239.153 127.916 238.328 128.895C237.503 129.874 236.924 131.037 236.642 132.286C236.404 133.34 235.815 134.281 234.971 134.956C234.127 135.631 233.078 135.998 231.998 135.998C230.918 135.998 229.869 135.631 229.025 134.956C228.182 134.281 227.592 133.34 227.354 132.286C227.072 131.037 226.494 129.874 225.668 128.895C224.843 127.916 223.795 127.149 222.612 126.659C221.429 126.169 220.145 125.971 218.87 126.08C217.594 126.189 216.363 126.602 215.28 127.286C214.367 127.863 213.284 128.113 212.21 127.993C211.136 127.874 210.135 127.393 209.37 126.629C208.606 125.865 208.124 124.863 208.005 123.789C207.885 122.715 208.134 121.633 208.711 120.719C209.395 119.636 209.809 118.405 209.918 117.129C210.027 115.853 209.828 114.57 209.338 113.386C208.849 112.203 208.082 111.155 207.102 110.33C206.123 109.504 204.96 108.926 203.711 108.644C202.657 108.406 201.716 107.817 201.041 106.973C200.367 106.129 199.999 105.08 199.999 104C199.999 102.92 200.367 101.871 201.041 101.027C201.716 100.183 202.657 99.594 203.711 99.356V99.356Z" fill="#00DBB1"/>
<path d="M192 200H272V216H192V200Z" fill="#00DBB1"/>
<path d="M216 168H296V184H216V168Z" fill="#00DBB1"/>
<path d="M168 168H200V184H168V168Z" fill="#00DBB1"/>
<path d="M152 240H344V256H152V240Z" fill="#00DBB1"/>
<path d="M120 240H136V256H120V240Z" fill="#00DBB1"/>
<path d="M152 272H280V288H152V272Z" fill="#00DBB1"/>
<path d="M296 272H344V288H296V272Z" fill="#00DBB1"/>
<path d="M152 304H344V320H152V304Z" fill="#00DBB1"/>
<path d="M120 304H136V320H120V304Z" fill="#00DBB1"/>
<path d="M152 336H200V352H152V336Z" fill="#00DBB1"/>
<path d="M216 336H344V352H216V336Z" fill="#00DBB1"/>
<path d="M152 368H280V384H152V368Z" fill="#00DBB1"/>
<path d="M120 368H136V384H120V368Z" fill="#00DBB1"/>
<path d="M152 400H344V416H152V400Z" fill="#00DBB1"/>
<path d="M296 368H344V384H296V368Z" fill="#00DBB1"/>
<path d="M472 144H464C464 135.513 460.629 127.374 454.627 121.373C448.626 115.371 440.487 112 432 112C423.513 112 415.374 115.371 409.373 121.373C403.371 127.374 400 135.513 400 144V400C400.001 401.242 400.292 402.466 400.851 403.575H400.845L424.845 451.575C425.51 452.904 426.531 454.021 427.795 454.802C429.058 455.583 430.514 455.996 432 455.996C433.486 455.996 434.942 455.583 436.205 454.802C437.469 454.021 438.49 452.904 439.155 451.575L463.155 403.575H463.149C463.708 402.466 463.999 401.242 464 400V160H472C474.121 160.002 476.154 160.846 477.654 162.346C479.154 163.846 479.998 165.879 480 168V256H496V168C495.993 161.637 493.462 155.537 488.962 151.038C484.463 146.538 478.363 144.007 472 144V144ZM432 128C436.242 128.005 440.309 129.692 443.308 132.692C446.308 135.691 447.995 139.758 448 144H416C416.005 139.758 417.692 135.691 420.692 132.692C423.691 129.692 427.758 128.005 432 128V128ZM448 392H416V272H448V392ZM448 256H416V240H448V256ZM432 430.111L420.944 408H443.056L432 430.111ZM448 224H416V160H448V224Z" fill="#00DBB1"/>
</svg>
