<svg id="sale_price" data-name="sale price" xmlns="http://www.w3.org/2000/svg" width="52.542" height="52.542" viewBox="0 0 52.542 52.542">
  <path id="Path_5516" data-name="Path 5516" d="M18.095,23.581A1.1,1.1,0,0,1,17,22.487V20.845a1.095,1.095,0,1,1,2.189,0v1.642A1.1,1.1,0,0,1,18.095,23.581Z" transform="translate(20.217 23.488)" fill="#00dbb1"/>
  <path id="Path_5517" data-name="Path 5517" d="M20.426,27.635H16.595a1.095,1.095,0,0,1,0-2.189h3.831a1.642,1.642,0,0,0,0-3.284H19.331a3.831,3.831,0,0,1,0-7.662h3.831a1.095,1.095,0,0,1,0,2.189H19.331a1.642,1.642,0,0,0,0,3.284h1.095a3.831,3.831,0,0,1,0,7.662Z" transform="translate(18.433 17.244)" fill="#00dbb1"/>
  <path id="Path_5518" data-name="Path 5518" d="M18.095,17.331A1.1,1.1,0,0,1,17,16.237V14.595a1.095,1.095,0,1,1,2.189,0v1.642A1.1,1.1,0,0,1,18.095,17.331Z" transform="translate(20.217 16.055)" fill="#00dbb1"/>
  <path id="Path_5519" data-name="Path 5519" d="M25.23,39.46A14.23,14.23,0,1,1,39.46,25.23,14.246,14.246,0,0,1,25.23,39.46Zm0-26.271A12.041,12.041,0,1,0,37.271,25.23,12.054,12.054,0,0,0,25.23,13.189Z" transform="translate(13.081 13.082)" fill="#00dbb1"/>
  <path id="Path_5520" data-name="Path 5520" d="M20.8,52.542a5.359,5.359,0,0,1-3.871-1.622L1.611,35.6A5.349,5.349,0,0,1,0,31.744a5.437,5.437,0,0,1,1.513-3.761l24.67-25.59A7.6,7.6,0,0,1,31.744,0H47.069a5.481,5.481,0,0,1,5.473,5.473V20.8a8.046,8.046,0,0,1-.528,2.833,1.1,1.1,0,1,1-2.054-.762,5.882,5.882,0,0,0,.392-2.071V5.473a3.288,3.288,0,0,0-3.284-3.284H31.744a5.431,5.431,0,0,0-3.978,1.716L3.087,29.5a3.234,3.234,0,0,0-.9,2.24,3.189,3.189,0,0,0,.961,2.3L18.484,49.381a3.267,3.267,0,0,0,4,.484,1.095,1.095,0,0,1,1.171,1.85,5.31,5.31,0,0,1-2.861.828Z" transform="translate(0 0)" fill="#00dbb1"/>
  <path id="Path_5521" data-name="Path 5521" d="M21.378,11.757a4.378,4.378,0,1,1,4.378-4.378A4.383,4.383,0,0,1,21.378,11.757Zm0-6.568a2.189,2.189,0,1,0,2.189,2.189A2.193,2.193,0,0,0,21.378,5.189Z" transform="translate(20.217 3.568)" fill="#00dbb1"/>
</svg>
