<?xml version="1.0" encoding="UTF-8"?>
<svg xmlns="http://www.w3.org/2000/svg" viewBox="0 0 64 64" width="512" height="512"><g id="Layer_20" data-name="Layer 20"><path d="M14,55a3,3,0,0,1,3,3,1,1,0,0,0,1,1H46a1,1,0,0,0,1-1,3,3,0,0,1,3-3,1,1,0,0,0,1-1V46a1,1,0,0,0-1-1,3,3,0,0,1-3-3,1,1,0,0,0-1-1H18a1,1,0,0,0-1,1,3,3,0,0,1-3,3,1,1,0,0,0-1,1v8A1,1,0,0,0,14,55Zm11-5a7,7,0,1,1,7,7A7.009,7.009,0,0,1,25,50Zm20.1-7A5.013,5.013,0,0,0,49,46.9v6.2A5.013,5.013,0,0,0,45.1,57H37.645a8.98,8.98,0,0,0,0-14ZM15,46.9A5.013,5.013,0,0,0,18.9,43h7.456a8.98,8.98,0,0,0,0,14H18.9A5.013,5.013,0,0,0,15,53.1Z"/><path d="M32,47a1,1,0,0,1,1,1h2a3,3,0,0,0-2-2.816V44H31v1.184A2.993,2.993,0,0,0,32,51a1,1,0,1,1-1,1H29a3,3,0,0,0,2,2.816V56h2V54.816A2.993,2.993,0,0,0,32,49a1,1,0,0,1,0-2Z"/><path d="M22,50a3,3,0,1,0-3,3A3,3,0,0,0,22,50Zm-4,0a1,1,0,1,1,1,1A1,1,0,0,1,18,50Z"/><path d="M45,53a3,3,0,1,0-3-3A3,3,0,0,0,45,53Zm0-4a1,1,0,1,1-1,1A1,1,0,0,1,45,49Z"/><path d="M54,37H10a1,1,0,0,0-1,1V62a1,1,0,0,0,1,1H54a1,1,0,0,0,1-1V38A1,1,0,0,0,54,37ZM53,61H11V39H53Z"/><path d="M17,18h4V30a1,1,0,0,0,1,1H42a1,1,0,0,0,1-1V18h4a1,1,0,0,0,.707-1.707l-15-15a1,1,0,0,0-1.414,0l-15,15A1,1,0,0,0,17,18ZM35,29H29V24a3,3,0,0,1,6,0Zm2,0V24a5,5,0,0,0-10,0v5H23V17.414l9-9,9,9V29ZM32,3.414,44.586,16H42.414L32.707,6.293a1,1,0,0,0-1.414,0L21.586,16H19.414Z"/><path d="M56,23H54V21a1,1,0,0,0-1.707-.707l-5,5a1,1,0,0,0,0,1.414l5,5A1,1,0,0,0,54,31V29h1a2,2,0,0,1,2,2v7a1,1,0,0,0,1,1h4a1,1,0,0,0,1-1V30A7.007,7.007,0,0,0,56,23Zm5,14H59V31a4,4,0,0,0-4-4H53a1,1,0,0,0-1,1v.586L49.414,26,52,23.414V24a1,1,0,0,0,1,1h3a5,5,0,0,1,5,5Z"/><path d="M10,29v2a1,1,0,0,0,1.707.707l5-5a1,1,0,0,0,0-1.414l-5-5A1,1,0,0,0,10,21v2H8a7.007,7.007,0,0,0-7,7v8a1,1,0,0,0,1,1H6a1,1,0,0,0,1-1V31a2,2,0,0,1,2-2ZM5,31v6H3V30a5,5,0,0,1,5-5h3a1,1,0,0,0,1-1v-.586L14.586,26,12,28.586V28a1,1,0,0,0-1-1H9A4,4,0,0,0,5,31Z"/></g></svg>
