<svg height="512" viewBox="0 0 64 64" width="512" xmlns="http://www.w3.org/2000/svg"><g id="Layer_20" data-name="Layer 20"><path d="m42 17v13h-20v-13l10-10z" fill="#aacbf7"/><path d="m32 7-10 10v10h13a4 4 0 0 0 4-4v-9z" fill="#edf7fd"/><rect fill="#fff" height="9" rx="2" width="8" x="27" y="15"/><path d="m17 17 15-15 15 15h-5l-10-10-10 10z" fill="#344c80"/><path d="m32 20a4 4 0 0 0 -4 4v6h8v-6a4 4 0 0 0 -4-4z" fill="#344c80"/><path d="m58 38v-7a3 3 0 0 0 -3-3h-2v3l-5-5 5-5v3h3a6 6 0 0 1 6 6v8z" fill="#4e71ad"/><path d="m6 38v-7a3 3 0 0 1 3-3h2v3l5-5-5-5v3h-3a6 6 0 0 0 -6 6v8z" fill="#4e71ad"/><path d="m10 38h44v24h-44z" fill="#749d58"/><path d="m46 58a4 4 0 0 1 4-4v-8a4 4 0 0 1 -4-4h-28a4 4 0 0 1 -4 4v8a4 4 0 0 1 4 4z" fill="#ccc"/><path d="m18 42a4 4 0 0 1 -4 4v8a3.963 3.963 0 0 1 2.62 1h24.38a4 4 0 0 0 4-4v-9z" fill="#f2f2f2"/><circle cx="32" cy="50" fill="#749d58" r="8"/><path d="m32 42a8 8 0 0 0 -6.24 13h8.24a3 3 0 0 0 3-3v-8.24a7.963 7.963 0 0 0 -5-1.76z" fill="#86b566"/><circle cx="45" cy="50" fill="#749d58" r="2"/><path d="m45 48a1.988 1.988 0 0 0 -1.723 3h.723a2 2 0 0 0 2-2v-.723a1.987 1.987 0 0 0 -1-.277z" fill="#86b566"/><circle cx="19" cy="50" fill="#749d58" r="2"/><path d="m19 48a1.988 1.988 0 0 0 -1.723 3h.723a2 2 0 0 0 2-2v-.723a1.987 1.987 0 0 0 -1-.277z" fill="#86b566"/><path d="m31 27a3 3 0 0 0 3-3v-3.445a3.955 3.955 0 0 0 -2-.555 4 4 0 0 0 -4 4v3z" fill="#4e71ad"/><path d="m14 55a3 3 0 0 1 3 3 1 1 0 0 0 1 1h28a1 1 0 0 0 1-1 3 3 0 0 1 3-3 1 1 0 0 0 1-1v-8a1 1 0 0 0 -1-1 3 3 0 0 1 -3-3 1 1 0 0 0 -1-1h-28a1 1 0 0 0 -1 1 3 3 0 0 1 -3 3 1 1 0 0 0 -1 1v8a1 1 0 0 0 1 1zm11-5a7 7 0 1 1 7 7 7.009 7.009 0 0 1 -7-7zm20.1-7a5.013 5.013 0 0 0 3.9 3.9v6.2a5.013 5.013 0 0 0 -3.9 3.9h-7.455a8.98 8.98 0 0 0 0-14zm-30.1 3.9a5.013 5.013 0 0 0 3.9-3.9h7.456a8.98 8.98 0 0 0 0 14h-7.456a5.013 5.013 0 0 0 -3.9-3.9z"/><path d="m32 47a1 1 0 0 1 1 1h2a3 3 0 0 0 -2-2.816v-1.184h-2v1.184a2.993 2.993 0 0 0 1 5.816 1 1 0 1 1 -1 1h-2a3 3 0 0 0 2 2.816v1.184h2v-1.184a2.993 2.993 0 0 0 -1-5.816 1 1 0 0 1 0-2z"/><path d="m22 50a3 3 0 1 0 -3 3 3 3 0 0 0 3-3zm-4 0a1 1 0 1 1 1 1 1 1 0 0 1 -1-1z"/><path d="m45 53a3 3 0 1 0 -3-3 3 3 0 0 0 3 3zm0-4a1 1 0 1 1 -1 1 1 1 0 0 1 1-1z"/><path d="m54 37h-44a1 1 0 0 0 -1 1v24a1 1 0 0 0 1 1h44a1 1 0 0 0 1-1v-24a1 1 0 0 0 -1-1zm-1 24h-42v-22h42z"/><path d="m17 18h4v12a1 1 0 0 0 1 1h20a1 1 0 0 0 1-1v-12h4a1 1 0 0 0 .707-1.707l-15-15a1 1 0 0 0 -1.414 0l-15 15a1 1 0 0 0 .707 1.707zm18 11h-6v-5a3 3 0 0 1 6 0zm2 0v-5a5 5 0 0 0 -10 0v5h-4v-11.586l9-9 9 9v11.586zm-5-25.586 12.586 12.586h-2.172l-9.707-9.707a1 1 0 0 0 -1.414 0l-9.707 9.707h-2.172z"/><path d="m56 23h-2v-2a1 1 0 0 0 -1.707-.707l-5 5a1 1 0 0 0 0 1.414l5 5a1 1 0 0 0 1.707-.707v-2h1a2 2 0 0 1 2 2v7a1 1 0 0 0 1 1h4a1 1 0 0 0 1-1v-8a7.007 7.007 0 0 0 -7-7zm5 14h-2v-6a4 4 0 0 0 -4-4h-2a1 1 0 0 0 -1 1v.586l-2.586-2.586 2.586-2.586v.586a1 1 0 0 0 1 1h3a5 5 0 0 1 5 5z"/><path d="m10 29v2a1 1 0 0 0 1.707.707l5-5a1 1 0 0 0 0-1.414l-5-5a1 1 0 0 0 -1.707.707v2h-2a7.007 7.007 0 0 0 -7 7v8a1 1 0 0 0 1 1h4a1 1 0 0 0 1-1v-7a2 2 0 0 1 2-2zm-5 2v6h-2v-7a5 5 0 0 1 5-5h3a1 1 0 0 0 1-1v-.586l2.586 2.586-2.586 2.586v-.586a1 1 0 0 0 -1-1h-2a4 4 0 0 0 -4 4z"/></g></svg>