<?xml version="1.0" encoding="UTF-8"?>
<svg xmlns="http://www.w3.org/2000/svg" viewBox="0 0 512 512" width="512" height="512"><g id="outline"><path d="M440,168a8,8,0,0,0-16,0,24.028,24.028,0,0,1-24,24H384V104a7.961,7.961,0,0,0-2.021-5.3c-.014-.017-.018-.033-.033-.05l-72-80A8,8,0,0,0,304,16H200c-.664,0-4.748,1.317-5.946,2.648l-72,80A8,8,0,0,0,120,104v88H80a8,8,0,0,0-8,8V488a8,8,0,0,0,8,8H424a8,8,0,0,0,8-8V383.974A39.8,39.8,0,0,0,440,360ZM88,432H416v16H88Zm328-16H88V400H400a39.759,39.759,0,0,0,16-3.35ZM280,192V112h88v80Zm78.037-96H275.563l-57.6-64h82.474ZM136,107.07l64-71.111,64,71.111V192H232V136a8,8,0,0,0-8-8H176.348a8,8,0,0,0-8,8v56H136ZM216,192H184.348V144H216ZM88,208H400a39.792,39.792,0,0,0,24-8.019V360a24.028,24.028,0,0,1-24,24H88ZM416,480H88V464H416Z"/><path d="M261.268,316.422a11.844,11.844,0,0,1-10.536,0A4.917,4.917,0,0,1,248,312a8,8,0,0,0-16,0,20.828,20.828,0,0,0,11.577,18.731A27.421,27.421,0,0,0,248,332.48V336a8,8,0,0,0,16,0v-3.52a27.421,27.421,0,0,0,4.423-1.748,20.941,20.941,0,0,0-.006-37.465c-5.262-2.628-12.381-6.181-17.654-8.8a4.968,4.968,0,0,1-.035-8.886l.039-.019a11.784,11.784,0,0,1,10.479.006l.053.027A4.917,4.917,0,0,1,264,280a8,8,0,0,0,16,0,20.833,20.833,0,0,0-11.577-18.733l-.073-.037a27.471,27.471,0,0,0-4.35-1.712V256a8,8,0,0,0-16,0v3.515a27.44,27.44,0,0,0-4.43,1.756l-.053.026a20.968,20.968,0,0,0,.126,37.5c5.263,2.616,12.372,6.163,17.626,8.787a4.943,4.943,0,0,1,0,8.841Z"/><path d="M408,344V248a8,8,0,0,0-8-8,8.009,8.009,0,0,1-8-8,8,8,0,0,0-8-8H136a8,8,0,0,0-8,8,16.019,16.019,0,0,1-16,16,8,8,0,0,0-8,8v80a8,8,0,0,0,8,8,16.019,16.019,0,0,1,16,16,8,8,0,0,0,8,8H384a8,8,0,0,0,8-8,8.009,8.009,0,0,1,8-8A8,8,0,0,0,408,344Zm-96-48a56,56,0,1,1-56-56A56.063,56.063,0,0,1,312,296ZM142.988,352A32.118,32.118,0,0,0,120,329.013V262.987A32.118,32.118,0,0,0,142.988,240h67.827a71.882,71.882,0,0,0,0,112ZM392,337.371A24.115,24.115,0,0,0,377.371,352H301.185a71.882,71.882,0,0,0,0-112h76.186A24.115,24.115,0,0,0,392,254.629Z"/><circle cx="152" cy="296" r="15"/><circle cx="361" cy="296" r="15"/></g></svg>
