<?xml version="1.0" encoding="iso-8859-1"?>
<!-- Generator: Adobe Illustrator 19.0.0, SVG Export Plug-In . SVG Version: 6.00 Build 0)  -->
<svg version="1.1" id="Capa_1" xmlns="http://www.w3.org/2000/svg" xmlns:xlink="http://www.w3.org/1999/xlink" x="0px" y="0px"
	 viewBox="0 0 512 512" style="enable-background:new 0 0 512 512;" xml:space="preserve">
<path style="fill:#FF9B4B;" d="M215.419,312.909l91.339,9.33l35.96,3.67c9.8,1.24,17.16,4.69,17.16,14.57
	c0,6.81-1.76,13.11-4.85,18.52c-6.61,11.58-19.32,19.12-33.91,19.12c-3.18,0-22.32,0-64.88-0.01c0.24,17.05,7.41,38.66,31.21,38.66
	c35.233,0,86.291-13.079,129.013-26.462v-91.265V191.112L285.759,69.118L155.056,191.112v107.929v32.277
	C171.485,317.007,193.359,310.145,215.419,312.909z"/>
<polygon style="fill:#EE4A4D;" points="440.254,213.32 285.759,69.119 131.263,213.32 99.329,183.637 285.759,10.001 
	472.189,183.637 "/>
<rect x="194.819" y="191.389" style="fill:#7AEAE7;" width="63.927" height="56.49"/>
<path d="M258.746,257.874H194.82c-5.523,0-10-4.477-10-10v-56.487c0-5.523,4.477-10,10-10h63.927c5.522,0,10,4.477,10,10v56.487
	C268.746,253.397,264.268,257.874,258.746,257.874z M204.82,237.874h43.927v-36.487H204.82V237.874z"/>
<rect x="312.768" y="191.389" style="fill:#7AEAE7;" width="63.927" height="56.49"/>
<path d="M376.699,257.874h-63.928c-5.522,0-10-4.477-10-10v-56.487c0-5.523,4.478-10,10-10h63.928c5.522,0,10,4.477,10,10v56.487
	C386.699,253.397,382.221,257.874,376.699,257.874z M322.771,237.874h43.928v-36.487h-43.928V237.874z"/>
<path d="M376.707,294.209c-0.65,0-1.311-0.07-1.95-0.2c-0.64-0.13-1.27-0.32-1.88-0.57c-0.6-0.25-1.18-0.56-1.72-0.92
	c-0.551-0.36-1.061-0.78-1.521-1.24s-0.88-0.97-1.25-1.52c-0.359-0.54-0.67-1.12-0.92-1.73c-0.24-0.6-0.439-1.23-0.57-1.87
	c-0.13-0.64-0.189-1.3-0.189-1.95c0-2.63,1.07-5.21,2.93-7.07c0.46-0.46,0.97-0.88,1.521-1.24c0.54-0.36,1.12-0.67,1.72-0.92
	c0.61-0.25,1.24-0.45,1.88-0.58c1.28-0.26,2.61-0.26,3.9,0c0.64,0.13,1.27,0.33,1.87,0.58c0.609,0.25,1.189,0.56,1.73,0.92
	c0.55,0.36,1.059,0.78,1.52,1.24c1.859,1.86,2.93,4.44,2.93,7.07c0,0.65-0.07,1.31-0.2,1.95s-0.32,1.27-0.57,1.87
	c-0.25,0.61-0.56,1.19-0.92,1.73c-0.359,0.55-0.779,1.06-1.239,1.52c-0.461,0.46-0.971,0.88-1.52,1.24
	c-0.54,0.36-1.12,0.67-1.73,0.92c-0.601,0.25-1.23,0.44-1.87,0.57C378.016,294.139,377.356,294.209,376.707,294.209z"/>
<path style="fill:#FCD0AC;" d="M484.807,426.949c-9.65,4.14-18.96,8.03-27.94,11.69c-119.099,48.59-179.019,56.11-202.579,57.23
	c-36.11,0-78.72-35.87-123.359-35.87H88.007c0-4.7-0.003-109.569-0.003-109.569h5.335c22.09,0,43.32-1.76,59.34-16.95
	c16.66-15.77,39.6-23.47,62.74-20.57l91.339,9.33l35.96,3.67c9.8,1.24,17.16,4.69,17.16,14.57c0,6.81-1.76,13.11-4.85,18.52
	c-6.61,11.58-19.32,19.12-33.91,19.12c-3.18,0-22.32,0-64.88-0.01c0.24,17.05,7.41,38.66,31.21,38.66
	c50.01,0,131.929-26.35,176.589-42.52c3.18-1.15,6.43-1.7,9.63-1.7c11.57,0,22.43,7.15,26.61,18.64c0.18,0.49,0.34,0.97,0.49,1.46
	C504.947,406.399,498.157,421.219,484.807,426.949z"/>
<rect x="10" y="319.338" style="fill:#67BFCE;" width="78.01" height="182.659"/>
<path d="M48.999,365.159c-0.65,0-1.31-0.07-1.95-0.2s-1.27-0.32-1.87-0.57c-0.61-0.25-1.19-0.56-1.73-0.92
	c-0.55-0.36-1.06-0.78-1.52-1.24s-0.88-0.97-1.24-1.52c-0.36-0.54-0.67-1.12-0.92-1.73c-0.25-0.6-0.44-1.23-0.57-1.87
	c-0.13-0.64-0.2-1.3-0.2-1.95c0-0.65,0.07-1.31,0.2-1.95c0.13-0.64,0.32-1.27,0.57-1.87c0.25-0.61,0.56-1.19,0.92-1.73
	c0.36-0.55,0.78-1.06,1.24-1.52c0.46-0.46,0.97-0.88,1.52-1.24c0.54-0.36,1.12-0.67,1.73-0.92c0.6-0.25,1.23-0.45,1.87-0.57
	c1.29-0.26,2.62-0.26,3.91,0c0.63,0.12,1.26,0.32,1.87,0.57c0.6,0.25,1.18,0.56,1.72,0.92c0.55,0.36,1.06,0.78,1.52,1.24
	c0.46,0.46,0.88,0.97,1.25,1.52c0.36,0.54,0.67,1.12,0.92,1.73c0.25,0.6,0.44,1.23,0.57,1.87c0.13,0.64,0.19,1.3,0.19,1.95
	c0,0.65-0.06,1.31-0.19,1.95c-0.13,0.64-0.32,1.27-0.57,1.87c-0.25,0.61-0.56,1.19-0.92,1.73c-0.37,0.55-0.79,1.06-1.25,1.52
	s-0.97,0.88-1.52,1.24c-0.54,0.36-1.12,0.67-1.72,0.92c-0.61,0.25-1.24,0.44-1.87,0.57
	C50.309,365.089,49.648,365.159,48.999,365.159z"/>
<path d="M510.328,389.717c-0.205-0.668-0.423-1.321-0.653-1.946c-5.488-15.086-19.958-25.222-36.007-25.222
	c-4.434,0-8.817,0.773-13.034,2.297c-8.642,3.129-20.476,7.288-34.173,11.773V214.125l6.97,6.505
	c3.837,3.581,9.787,3.587,13.632,0.014l31.934-29.683c2.035-1.891,3.191-4.542,3.192-7.32c0.001-2.777-1.152-5.43-3.185-7.323
	L292.574,2.684c-3.839-3.575-9.79-3.577-13.631,0L92.513,176.319c-2.032,1.893-3.186,4.545-3.185,7.323
	c0.001,2.777,1.158,5.429,3.192,7.32l31.935,29.684c1.919,1.784,4.363,2.675,6.808,2.675c2.451,0,4.903-0.897,6.823-2.689
	l6.97-6.506v112.752c-11.534,10.456-26.728,13.185-47.05,13.512v-21.052c0-5.523-4.477-10-10-10H10c-5.523,0-10,4.477-10,10v182.66
	c0,5.523,4.477,10,10,10h78.008c5.523,0,10-4.477,10-10v-32h32.922c21.428,0,43.166,9.422,64.189,18.534
	c20.57,8.915,39.999,17.336,59.171,17.336c0.158,0,0.317-0.004,0.475-0.011c26.977-1.283,89.596-10.518,205.878-57.958
	c9.241-3.767,18.698-7.723,28.108-11.76c0.001,0,0.001,0,0.002,0C506.748,428.414,516.027,408.467,510.328,389.717z
	 M131.249,199.654l-17.24-16.025L285.758,23.667l171.75,159.962l-17.24,16.025l0,0L292.582,61.808
	c-3.842-3.586-9.805-3.586-13.647,0L131.249,199.654L131.249,199.654z M285.758,82.798l120.702,112.66v187.476
	c-34.772,10.624-79.459,22.243-112.428,23.685c-0.124,0.005-0.248,0.01-0.371,0.015c-0.875,0.036-1.74,0.064-2.599,0.085
	c-0.226,0.006-0.454,0.012-0.68,0.017c-0.99,0.021-1.97,0.033-2.935,0.033c-13.094,0-18.181-9.793-20.103-18.658
	c11.971,0.003,21.725,0.004,29.489,0.006c9.881,0.001,16.538,0.002,20.44,0.002c0.279,0,0.543,0,0.794,0s0.488,0,0.711,0
	c1.115,0,1.888,0,2.339,0h0.001c16.656,0,32.042-8.138,40.907-21.433c0.591-0.887,1.154-1.796,1.685-2.728
	c0.194-0.34,0.363-0.694,0.548-1.039c3.665-6.817,5.619-14.542,5.619-22.441c0-7.922-3.365-21.639-25.904-24.491
	c-0.08-0.01-0.16-0.019-0.24-0.027l-127.188-12.989c-0.006-0.001-0.013-0.001-0.019-0.002c-1.006-0.125-2.012-0.225-3.018-0.315
	c-0.244-0.022-0.489-0.041-0.733-0.06c-0.906-0.073-1.811-0.133-2.715-0.178c-0.1-0.005-0.199-0.012-0.299-0.016
	c-15.663-0.723-31.052,2.767-44.705,9.995v-18.187h178.649c5.522,0,10-4.477,10-10s-4.478-10-10-10H165.056v-78.752L285.758,82.798z
	 M78.008,491.998H59V388.159c0-5.523-4.477-10-10-10s-10,4.477-10,10v103.839H20v-162.66h58.008l0,0c0,0.02,0-0.02,0,0
	L78.008,491.998L78.008,491.998z M480.863,417.76c-3.834,1.645-7.673,3.271-11.504,4.881l-7.103-12.518
	c-2.727-4.804-8.83-6.488-13.633-3.762c-4.803,2.726-6.487,8.829-3.762,13.632l5.87,10.344
	c-111.63,45.329-171.019,54.273-196.671,55.531c-14.975-0.077-32.471-7.66-50.989-15.686c-21.827-9.461-46.567-20.184-72.143-20.184
	H98.007V360.4c20.809-0.267,43.732-2.767,61.547-19.66c0.807-0.764,1.637-1.497,2.475-2.216c0.425-0.364,0.86-0.714,1.292-1.066
	c0.495-0.404,0.991-0.808,1.495-1.197c0.524-0.403,1.058-0.792,1.593-1.178c0.414-0.3,0.828-0.6,1.247-0.89
	c0.649-0.447,1.307-0.879,1.97-1.302c0.307-0.196,0.613-0.393,0.922-0.584c0.781-0.48,1.571-0.945,2.369-1.392
	c0.192-0.108,0.385-0.217,0.578-0.323c0.908-0.497,1.826-0.975,2.754-1.429c0.084-0.041,0.167-0.082,0.251-0.122
	c7.361-3.561,15.323-5.763,23.486-6.476c0.002,0,0.005,0,0.007,0c1.153-0.101,2.311-0.17,3.471-0.212
	c0.162-0.005,0.326-0.002,0.488-0.007c1.009-0.028,2.019-0.042,3.03-0.025c0.435,0.008,0.871,0.038,1.306,0.054
	c0.754,0.028,1.508,0.048,2.263,0.101c1.207,0.086,2.415,0.201,3.624,0.353c0.076,0.01,0.151,0.018,0.228,0.026l85.263,8.707v16.102
	c0,5.523,4.478,10,10,10s10-4.477,10-10v-14.059l21.913,2.238c1.556,0.2,2.821,0.426,3.848,0.674
	c4.452,1.071,4.452,2.536,4.452,3.961c0,4.893-1.189,9.455-3.535,13.563c-0.31,0.543-0.638,1.073-0.983,1.589
	c-0.691,1.033-1.453,2.012-2.276,2.934c-0.412,0.461-0.839,0.908-1.282,1.339c-5.306,5.18-12.732,8.214-20.684,8.214
	c-0.398,0-1.044,0-1.954,0c-0.228,0-0.472,0-0.733,0c-0.261,0-0.538,0-0.833,0c-4.714,0-13.767-0.001-28.092-0.003
	c-8.953-0.001-19.965-0.004-33.265-0.007c-0.001,0-0.001,0-0.002,0c-2.676,0-5.241,1.073-7.12,2.978
	c-1.88,1.906-2.917,4.486-2.879,7.163c0.415,29.475,16.589,48.52,41.209,48.52c1.075,0,2.168-0.016,3.268-0.038
	c0.278-0.006,0.557-0.013,0.836-0.021c0.961-0.025,1.931-0.057,2.91-0.098c0.148-0.006,0.294-0.011,0.443-0.017
	c55.273-2.451,138.307-30.55,172.532-42.942c2.026-0.732,4.122-1.104,6.229-1.104c7.671,0,14.588,4.846,17.228,12.101
	c0.115,0.313,0.216,0.619,0.305,0.907C493.922,404.517,489.479,414.062,480.863,417.76z"/>
<g>
</g>
<g>
</g>
<g>
</g>
<g>
</g>
<g>
</g>
<g>
</g>
<g>
</g>
<g>
</g>
<g>
</g>
<g>
</g>
<g>
</g>
<g>
</g>
<g>
</g>
<g>
</g>
<g>
</g>
</svg>
