<svg id="Capa_1" enable-background="new 0 0 512 512" height="512" viewBox="0 0 512 512" width="512" xmlns="http://www.w3.org/2000/svg"><g><g id="Page-1_19_"><g id="_x30_20---Sale-Document"><path id="Shape_48_" d="m154.761 202.138c2.535 6.608 8.83 11.012 15.906 11.127v85.402c0 9.426 7.641 17.067 17.067 17.067h136.533c9.426 0 17.067-7.641 17.067-17.067v-85.402c7.068-.11 13.361-4.499 15.906-11.093 2.587-6.675.749-14.255-4.608-19.004l-11.298-10.189v-44.979c0-9.426-7.641-17.067-17.067-17.067h-17.067c-9.035.036-16.476 7.107-16.973 16.128l-22.443-20.164c-6.702-6.023-16.867-6.023-23.569 0l-84.855 76.228c-5.355 4.754-7.19 12.337-4.599 19.013zm92.706 96.529v-25.6c0-4.713 3.821-8.533 8.533-8.533s8.533 3.821 8.533 8.533v25.6zm34.133 0v-25.6c0-14.138-11.462-25.6-25.6-25.6s-25.6 11.462-25.6 25.6v25.6h-42.667v-85.333h136.533v85.333zm25.6-170.667h17.067v29.645l-17.067-15.36zm-50.816-8.405 84.463 76.672h-84.847l-85.231-.444z"/><g clip-rule="evenodd" fill-rule="evenodd"><path id="Path_49_" d="m128 68.267h85.333c4.713 0 8.533-3.821 8.533-8.533s-3.821-8.533-8.533-8.533h-85.333c-4.713 0-8.533 3.821-8.533 8.533s3.82 8.533 8.533 8.533z"/><path id="Path_48_" d="m128 102.4h42.667c4.713 0 8.533-3.821 8.533-8.533 0-4.713-3.821-8.533-8.533-8.533h-42.667c-4.713 0-8.533 3.821-8.533 8.533 0 4.713 3.82 8.533 8.533 8.533z"/><path id="Path_47_" d="m140.8 443.733c-12.578 0-21.333-6.75-21.333-12.8 0-4.713-3.821-8.533-8.533-8.533s-8.533 3.821-8.533 8.533c0 16.742 16.87 29.867 38.4 29.867s38.4-13.124 38.4-29.867c0-16.742-16.87-29.867-38.4-29.867-12.578 0-21.333-6.75-21.333-12.8s8.755-12.8 21.333-12.8 21.333 6.75 21.333 12.8c0 4.713 3.821 8.533 8.533 8.533 4.713 0 8.533-3.82 8.533-8.533 0-16.742-16.87-29.867-38.4-29.867s-38.4 13.124-38.4 29.867c0 16.742 16.87 29.867 38.4 29.867 12.578 0 21.333 6.75 21.333 12.8 0 6.051-8.755 12.8-21.333 12.8z"/></g><path id="Shape_47_" d="m238.327 363.759c-1.293-3.246-4.434-5.375-7.927-5.375-3.494 0-6.635 2.13-7.927 5.375l-34.133 85.333c-1.753 4.378.375 9.349 4.753 11.102s9.349-.375 11.102-4.753l8.107-20.241h.179 35.84.179l8.107 20.275c1.134 2.832 3.693 4.844 6.713 5.278s6.042-.776 7.927-3.174c1.886-2.398 2.349-5.62 1.215-8.453zm-19.217 54.374 11.29-28.228 11.29 28.228z"/><path id="Path_46_" clip-rule="evenodd" d="m332.8 443.733h-34.133v-76.8c0-4.713-3.82-8.533-8.533-8.533s-8.533 3.821-8.533 8.533v85.333c0 4.713 3.82 8.533 8.533 8.533h42.666c4.713 0 8.533-3.821 8.533-8.533s-3.82-8.533-8.533-8.533z" fill-rule="evenodd"/><path id="Path_45_" clip-rule="evenodd" d="m349.867 366.933v85.333c0 4.713 3.821 8.533 8.533 8.533h51.2c4.713 0 8.533-3.821 8.533-8.533s-3.82-8.533-8.533-8.533h-42.667v-25.6h42.667c4.713 0 8.533-3.82 8.533-8.533s-3.82-8.533-8.533-8.533h-42.667v-25.6h42.667c4.713 0 8.533-3.821 8.533-8.533 0-4.713-3.82-8.533-8.533-8.533h-51.2c-4.713-.001-8.533 3.82-8.533 8.532z" fill-rule="evenodd"/><path id="Shape_46_" d="m409.6 512c18.851 0 34.133-15.282 34.133-34.133v-368.393c.022-6.796-2.68-13.318-7.501-18.108l-83.865-83.865c-4.788-4.819-11.306-7.52-18.099-7.501h-231.868c-18.851 0-34.133 15.282-34.133 34.133v443.733c0 18.852 15.282 34.134 34.133 34.134zm5.001-418.133h-47.667c-9.426 0-17.067-7.641-17.067-17.067v-47.667zm-329.268 384v-443.734c0-9.426 7.641-17.067 17.067-17.067h230.4v59.734c0 18.851 15.282 34.133 34.133 34.133h59.733v366.933c0 9.426-7.641 17.067-17.067 17.067h-307.199c-9.426 0-17.067-7.641-17.067-17.066z"/></g></g></g></svg>