<svg id="_x31__x2C_5" enable-background="new 0 0 36 36" height="512" viewBox="0 0 36 36" width="512" xmlns="http://www.w3.org/2000/svg"><path d="m31.833 27.623c0-6.917 3.583-11.667 3.583-15s-1.916-10.333-17.249-10.333-17.584 9.417-17.584 13.083c0 17.167 31.25 24.5 31.25 12.25z" fill="#efefef"/><g fill="#a4afc1"><path d="m29.875 6.188h1v2h-1z"/><path d="m29.875 11.938h1v2h-1z"/><path d="m26.375 9.438h2v1h-2z"/><path d="m32.125 9.438h2v1h-2z"/></g><path d="m26.09 15.89-2.84-2.71v-5.43h-3v2.57l-3.75-3.57-9.59 9.14c-.1.09-.16.22-.16.36 0 .28.22.5.5.5h2.5v7c0 .828.672 1.5 1.5 1.5h11c.552 0 1-.448 1-1v-7.5h2.5c.28 0 .5-.22.5-.5 0-.14-.06-.27-.16-.36z" fill="#f3f3f1"/><circle cx="23.5" cy="23.5" fill="#2fdf84" r="5.75"/><path d="m22.5 10.32v-2.57h-2.25v.428z" fill="#d5dbe1"/><path d="m12 23.75v-7h-2.25v7c0 .828.672 1.5 1.5 1.5h2.25c-.828 0-1.5-.672-1.5-1.5z" fill="#d5dbe1"/><path d="m9 16.25c0-.14.06-.27.16-.36l8.466-8.068-1.126-1.072-9.59 9.14c-.1.09-.16.22-.16.36 0 .28.22.5.5.5h2.25c-.28 0-.5-.22-.5-.5z" fill="#d5dbe1"/><path d="m20 23.5c0-2.79 1.988-5.115 4.625-5.638-.364-.072-.74-.112-1.125-.112-3.176 0-5.75 2.574-5.75 5.75s2.574 5.75 5.75 5.75c.385 0 .761-.039 1.125-.112-2.637-.523-4.625-2.848-4.625-5.638z" fill="#00b871"/><path d="m23.5 30c-3.584 0-6.5-2.916-6.5-6.5s2.916-6.5 6.5-6.5 6.5 2.916 6.5 6.5-2.916 6.5-6.5 6.5zm0-11.5c-2.757 0-5 2.243-5 5s2.243 5 5 5 5-2.243 5-5-2.243-5-5-5z"/><path d="m22.75 26h1.5v.75h-1.5z"/><path d="m22.75 20.25h1.5v.75h-1.5z"/><path d="m23.625 26.5h-1.375v-1.5h1.375c.207 0 .375-.168.375-.375s-.168-.375-.375-.375h-.25c-1.034 0-1.875-.841-1.875-1.875s.841-1.875 1.875-1.875h1.375v1.5h-1.375c-.207 0-.375.168-.375.375s.168.375.375.375h.25c1.034 0 1.875.841 1.875 1.875s-.841 1.875-1.875 1.875z"/><path d="m14.25 26h-3c-1.241 0-2.25-1.01-2.25-2.25v-6.25h-1.75c-.689 0-1.25-.561-1.25-1.25 0-.348.148-.682.406-.916l9.576-9.127c.29-.275.746-.275 1.035 0l2.483 2.363v-.82c0-.414.336-.75.75-.75h3c.414 0 .75.336.75.75v5.109l.918.879-1.037 1.084-1.15-1.101c-.148-.141-.231-.336-.231-.541v-4.68h-1.5v1.82c0 .3-.179.571-.455.689-.276.117-.596.061-.812-.146l-3.233-3.077-8.619 8.214h1.869c.414 0 .75.336.75.75v7c0 .413.336.75.75.75h3zm-6.816-9.573-.006.006c.002-.002.004-.004.006-.006z"/></svg>