<svg height="480pt" viewBox="-27 0 480 480" width="480pt" xmlns="http://www.w3.org/2000/svg"><path d="m418.519531 0h-64c-4.417969 0-8 3.582031-8 8v16h-7.878906l-54.519531-23.351562c-.988282-.425782-2.046875-.648438-3.121094-.648438h-84.160156c-14.84375.0195312-29.078125 5.921875-39.578125 16.414062l-65.140625 65.050782c-10.570313 10.28125-12.621094 26.503906-4.945313 39.09375 1.242188 1.839844 2.667969 3.539062 4.261719 5.082031-5.832031 10.511719-8.898438 22.335937-8.917969 34.359375-.074219 30.890625 19.566407 58.386719 48.8125 68.335938 29.246094 9.945312 61.578125.132812 80.355469-24.398438 18.78125-24.527344 19.820312-58.300781 2.582031-83.9375h19.867188c5.726562 19.199219 31.453125 32 54.832031 32 23.375 0 49.09375-12.800781 54.824219-32h2.726562v16c0 4.417969 3.582031 8 8 8h64c4.417969 0 8-3.582031 8-8v-128c0-4.417969-3.582031-8-8-8zm-208 160c0 30.929688-25.070312 56-56 56-30.929687 0-56-25.070312-56-56-.035156-11.371094 3.441407-22.472656 9.953125-31.792969 10.117188-14.726562 26.667969-23.722656 44.527344-24.207031h1.519531c1 0 1.976563.128906 2.976563.175781 5.605468 9.867188 16.121094 15.925781 27.472656 15.824219h8.621094c10.808594 10.503906 16.910156 24.929688 16.929687 40zm126.449219-56c-4.417969 0-8 3.582031-8 8 0 12.113281-19.816406 24-40 24s-40-11.886719-40-24c0-4.417969-3.582031-8-8-8h-56c-8.839844 0-16-7.164062-16-16s7.160156-16 16-16h88v-16h-88c-17.675781 0-32 14.328125-32 32h-.152344c-19.921875.484375-38.753906 9.207031-52 24.097656-.066406-.089844-.144531-.160156-.210937-.257812-3.515625-6.253906-2.347657-14.097656 2.84375-19.054688l65.148437-65.074218c7.492188-7.488282 17.648438-11.699219 28.242188-11.710938h82.480468l54.496094 23.351562c1.003906.433594 2.089844.65625 3.183594.648438h9.519531v64zm73.550781 24h-48v-112h48zm0 0"/><path d="m267.773438 329.441406-41.253907-29.121094v-44.320312c0-4.417969-3.582031-8-8-8h-32c-4.417969 0-8 3.582031-8 8v10.398438l-35.390625-24.972657c-2.765625-1.949219-6.453125-1.949219-9.21875 0l-124.648437 88c-9.988281 7.195313-12.253907 21.125-5.058594 31.113281 7.195313 9.992188 21.125 12.257813 31.117187 5.0625l15.199219-11.144531v109.542969c0 8.835938 7.164063 16 16 16h144c8.835938 0 16-7.164062 16-16v-109.542969l15.199219 11.144531c6.457031 4.753907 14.972656 5.675782 22.300781 2.40625 7.324219-3.269531 12.328125-10.21875 13.101563-18.203124.773437-7.984376-2.800782-15.765626-9.363282-20.378907zm-73.253907-65.441406h16v25.023438l-16-11.289063zm-96 200v-48h32v48zm112 0h-64v-56c0-4.417969-3.582031-8-8-8h-48c-4.417969 0-8 3.582031-8 8v56h-16v-121.28125l72-52.796875 72 52.796875zm49.601563-112.863281c-.953125 1.425781-2.449219 2.402343-4.136719 2.695312-1.6875.308594-3.425781-.097656-4.800781-1.121093l-107.953125-79.199219c-2.816407-2.070313-6.652344-2.070313-9.472657 0l-107.949218 79.199219c-1.8125 1.527343-4.324219 1.90625-6.503906.984374-2.175782-.921874-3.65625-2.992187-3.820313-5.351562-.167969-2.359375 1.007813-4.613281 3.035156-5.832031l120-84.71875 120 84.710937c2.792969 1.960938 3.503907 5.800782 1.601563 8.632813zm0 0"/><path d="m154.519531 408v32c0 4.417969 3.582031 8 8 8h32c4.417969 0 8-3.582031 8-8v-32c0-4.417969-3.582031-8-8-8h-32c-4.417969 0-8 3.582031-8 8zm16 8h16v16h-16zm0 0"/><path d="m106.519531 352c0 17.671875 14.328125 32 32 32s32-14.328125 32-32-14.328125-32-32-32-32 14.328125-32 32zm48 0c0 8.835938-7.164062 16-16 16-8.835937 0-16-7.164062-16-16s7.164063-16 16-16c8.835938 0 16 7.164062 16 16zm0 0"/><path d="m146.519531 136h16c4.417969 0 8 3.582031 8 8h16c0-13.253906-10.746093-24-24-24v-8h-16v8c-13.253906 0-24 10.746094-24 24s10.746094 24 24 24h16c4.417969 0 8 3.582031 8 8s-3.582031 8-8 8h-16c-4.417969 0-8-3.582031-8-8h-16c0 13.253906 10.746094 24 24 24v8h16v-8c13.253907 0 24-10.746094 24-24s-10.746093-24-24-24h-16c-4.417969 0-8-3.582031-8-8s3.582031-8 8-8zm0 0"/><path d="m394.519531 336h-80c-8.835937 0-16 7.164062-16 16v16c.023438.707031.09375 1.414062.214844 2.113281-5.050781 2.796875-8.195313 8.109375-8.214844 13.886719v16c.019531 5.777344 3.164063 11.089844 8.214844 13.886719-.121094.699219-.191406 1.40625-.214844 2.113281v16c.023438.707031.09375 1.414062.214844 2.113281-5.050781 2.796875-8.195313 8.109375-8.214844 13.886719v16c0 8.835938 7.164063 16 16 16h80c8.835938 0 16-7.164062 16-16v-16c-.023437-.707031-.09375-1.414062-.214843-2.113281 5.050781-2.796875 8.195312-8.109375 8.214843-13.886719v-16c-.019531-5.777344-3.164062-11.089844-8.214843-13.886719.121093-.699219.191406-1.40625.214843-2.113281v-16c-.023437-.707031-.09375-1.414062-.214843-2.113281 5.050781-2.796875 8.195312-8.109375 8.214843-13.886719v-16c0-8.835938-7.164062-16-16-16zm-80 16h80v16h-80zm72 48h-80v-16h80zm8 16v16h-80v-16zm-8 48h-80v-16h80zm0 0"/></svg>