<?xml version="1.0" encoding="iso-8859-1"?>
<!-- Generator: Adobe Illustrator 18.1.1, SVG Export Plug-In . SVG Version: 6.00 Build 0)  -->
<svg version="1.1" id="Capa_1" xmlns="http://www.w3.org/2000/svg" xmlns:xlink="http://www.w3.org/1999/xlink" x="0px" y="0px"
	 viewBox="0 0 285 285" style="enable-background:new 0 0 285 285;" xml:space="preserve">
<g>
	<g>
		<path d="M272.046,32.385H12.954C5.798,32.385,0,38.189,0,45.342v194.317c0,7.153,5.798,12.957,12.954,12.957
			c7.153,0,12.955-5.804,12.955-12.957V58.297h68.015v6.541c-6.349,1.469-11.433,4.976-13.888,9.654H45.341
			c-3.578,0-6.476,2.898-6.476,6.476v136.024c0,3.575,2.898,6.476,6.476,6.476h207.275c3.575,0,6.476-2.9,6.476-6.476V80.967
			c0-3.578-2.901-6.476-6.476-6.476h-34.697c-2.453-4.679-7.537-8.186-13.889-9.654v-6.541h68.016
			c7.156,0,12.954-5.802,12.954-12.955S279.202,32.385,272.046,32.385z M246.134,210.51H51.82V87.446h194.314V210.51z
			 M191.076,64.837c-6.349,1.472-11.433,4.976-13.879,9.654H120.76c-2.449-4.679-7.533-8.183-13.882-9.654v-6.541h84.198
			L191.076,64.837L191.076,64.837z"/>
		<path d="M79.229,172.405c-11.829,0-10.193-9.262-16.535-9.262c-2.848,0-4.917,1.992-4.917,4.843c0,5.56,6.63,12.973,21.452,12.973
			c14.104,0,21.094-6.915,21.094-16.18c0-5.984-2.709-12.326-13.4-14.751l-9.76-2.208c-3.708-0.854-7.984-1.995-7.984-5.554
			c0-3.569,2.993-6.064,8.408-6.064c10.904,0,9.905,7.626,15.32,7.626c2.854,0,5.347-1.704,5.347-4.626
			c0-6.843-10.762-11.977-19.881-11.977c-9.905,0-20.454,4.277-20.454,15.679c0,5.489,1.927,11.334,12.546,14.04l13.18,3.349
			c3.989,0.996,4.988,3.278,4.988,5.347C88.633,169.055,85.284,172.405,79.229,172.405z"/>
		<path d="M109.507,180.674c2.78,0,4.416-0.931,5.205-3.207l3.064-8.554h18.812l2.99,8.554c0.856,2.276,2.712,3.207,5.276,3.207
			c2.993,0,5.489-2.282,5.489-5.13c0-1.287-0.717-3.349-1.144-4.494l-14.111-39.265c-1.283-3.634-3.634-4.271-6.271-4.271h-2.78
			c-2.848,0-4.7,0.924-5.699,3.559l-15.106,39.976c-0.427,1.145-1.138,3.207-1.138,4.494
			C104.092,178.676,106.3,180.674,109.507,180.674z M127.251,140.197h0.146l6.624,20.596h-13.684L127.251,140.197z"/>
		<path d="M163.229,179.743H187.6c3.349,0,6.055-1.707,6.055-4.914s-2.706-4.917-6.055-4.917h-19.525v-36.556
			c0-3.494-2.276-5.841-5.842-5.841s-5.845,2.347-5.845,5.841v39.549C156.388,178.107,159.1,179.743,163.229,179.743z"/>
		<path d="M207.045,179.743h28.005c3.42,0,5.913-0.993,5.913-4.7c0-3.708-2.493-4.704-5.913-4.704h-23.159v-12.401h19.81
			c3.065,0,5.489-0.854,5.489-4.49c0-3.634-2.424-4.487-5.489-4.487h-19.81v-11.117h22.59c3.42,0,5.916-0.996,5.916-4.704
			c0-3.705-2.495-4.701-5.916-4.701h-27.437c-4.131,0-6.84,1.636-6.84,6.837v37.629
			C200.205,178.107,202.914,179.743,207.045,179.743z"/>
	</g>
</g>
<g>
</g>
<g>
</g>
<g>
</g>
<g>
</g>
<g>
</g>
<g>
</g>
<g>
</g>
<g>
</g>
<g>
</g>
<g>
</g>
<g>
</g>
<g>
</g>
<g>
</g>
<g>
</g>
<g>
</g>
</svg>
