<?xml version="1.0" encoding="UTF-8"?>
<svg xmlns="http://www.w3.org/2000/svg" id="Icons" viewBox="0 0 60 60" width="512" height="512"><path d="M3,60H8a2.985,2.985,0,0,0,2.22-1H35.3a8,8,0,0,0,4.159-1.166L58.2,46.424a3.745,3.745,0,0,0,1.728-2.487,3.68,3.68,0,0,0-.626-2.872c-.018-.029-.037-.057-.058-.086a3.732,3.732,0,0,0-4.175-1.3L50,41.368V17a2,2,0,0,0,1.2-3.6L46,9.5V2a2,2,0,0,0-2-2H41a2,2,0,0,0-2,2V4.252L34.212.659A1.994,1.994,0,0,0,31.8.65L14.8,13.4A2,2,0,0,0,16,17V35.527A10.122,10.122,0,0,0,12.8,35H10.816A3,3,0,0,0,8,33H3a3,3,0,0,0-3,3V57A3,3,0,0,0,3,60ZM41,2h3V8l-3-2.25ZM17,15H16L33,2.25,50,15H49a1,1,0,0,0-1,1V42.034L36.563,45.846a3.005,3.005,0,0,1-.95.154h-.574a4.6,4.6,0,0,0-.372-3.938l-.09-.149A6.033,6.033,0,0,0,29.432,39H24.2a8.154,8.154,0,0,1-5.076-1.781A9.985,9.985,0,0,0,18,36.449V16A1,1,0,0,0,17,15Zm.875,23.781A10.161,10.161,0,0,0,24.2,41h5.231a4.02,4.02,0,0,1,3.429,1.941l.09.15A2.615,2.615,0,0,1,32.8,46H26.725a9.966,9.966,0,0,0-5.547,1.68l-.733.488a1,1,0,0,0,1.11,1.664l.732-.488A7.979,7.979,0,0,1,26.725,48h8.888a4.979,4.979,0,0,0,1.582-.257l18.511-6.17a1.728,1.728,0,0,1,1.888.527c.017.029.037.057.057.085a1.739,1.739,0,0,1-.486,2.53L38.42,56.125A6.009,6.009,0,0,1,35.3,57H11V37h1.8A8.154,8.154,0,0,1,17.875,38.781ZM2,36a1,1,0,0,1,1-1H8a1,1,0,0,1,1,1V57a1,1,0,0,1-1,1H3a1,1,0,0,1-1-1Z"/><path d="M29,29a1,1,0,0,0-2,0c0,2.472,2.167,4.526,5,4.925V35a1,1,0,0,0,2,0V33.925c2.833-.4,5-2.453,5-4.925s-2.167-4.526-5-4.925V18.106c1.721.336,3,1.5,3,2.894a1,1,0,0,0,2,0c0-2.472-2.167-4.526-5-4.925V15a1,1,0,0,0-2,0v1.075c-2.833.4-5,2.453-5,4.925s2.167,4.526,5,4.925v5.968C30.279,31.558,29,30.394,29,29Zm8,0c0,1.394-1.279,2.558-3,2.893V26.106C35.721,26.442,37,27.606,37,29Zm-8-8c0-1.394,1.279-2.558,3-2.894v5.787C30.279,23.558,29,22.394,29,21Z"/></svg>
