<svg id="Capa_1" enable-background="new 0 0 512 512" height="512" viewBox="0 0 512 512" width="512" xmlns="http://www.w3.org/2000/svg"><g><path d="m342.572 466.188h15.053v15.053h-15.053z"/><path d="m192.04 466.188h15.053v15.053h-15.053z"/><path d="m508.158 59.728h-391.385v-59.728h-112.931v45.178h67.772v29.497h15.053v-44.545h-67.772v-15.072h82.825v387.243l19.545 18.824h236.361v-15.053h-230.291l-10.562-10.172v-50.121h327.142l34.119-40.422v-200.442h30.125v-45.187zm-45.178 240.124-26.058 30.873h-320.149v-225.81h346.207zm30.125-209.99h-376.332v-15.08h376.332z"/><path d="m372.679 406.071h15.053v15.053h-15.053z"/><path d="m402.785 421.125h30.107v14.949h-320.535l-25.69-25.601v-320.681h-15.054v326.931l34.523 34.404h63.862c-5.045 6.404-8.066 14.473-8.066 23.239 0 20.751 16.882 37.633 37.633 37.633 11.033 0 21.471-4.817 28.638-13.216l-11.452-9.771c-4.302 5.042-10.566 7.934-17.186 7.934-12.451 0-22.58-10.129-22.58-22.58s10.129-22.58 22.58-22.58 22.58 10.129 22.58 22.58c0 1.537-.154 3.071-.459 4.56l14.748 3.016c.507-2.479.764-5.028.764-7.576 0-8.766-3.021-16.835-8.066-23.239h91.398c-5.045 6.404-8.066 14.473-8.066 23.239 0 20.751 16.882 37.633 37.633 37.633s37.633-16.882 37.633-37.633c0-8.766-3.021-16.835-8.066-23.239h68.279v-45.056h-45.16v15.054zm-52.686 75.822c-12.451 0-22.58-10.129-22.58-22.58s10.129-22.58 22.58-22.58 22.58 10.129 22.58 22.58-10.129 22.58-22.58 22.58z"/><path d="m214.747 315.976h150.238v-45.366h-15.053v30.312h-120.131v-90.494h-15.099v-29.983h30.169l44.909-39.241 44.888 39.241h30.438v29.983h-15.174v45.577h15.053v-30.523h15.174v-60.09h-39.839l-50.538-44.181-50.561 44.181h-39.573v60.09h15.099z"/><path d="m297.452 286.047v-15.054h22.58v-45.16h-45.16v-15.053h45.107v-15.053h-22.527v-15.053h-15.053v15.053h-22.58v45.16h45.16v15.053h-45.15v15.053h22.57v15.054z"/><path d="m131.826 119.963h15.053v15.053h-15.053z"/><path d="m161.933 119.963h15.053v15.053h-15.053z"/></g></svg>