<?xml version="1.0" encoding="UTF-8"?>
<svg xmlns="http://www.w3.org/2000/svg" id="Layer_3" data-name="Layer 3" viewBox="0 0 64 64" width="512" height="512"><path d="M58,41a1,1,0,0,0,.707-1.707l-16.83-16.83a13,13,0,1,0-19.754,0L5.293,39.293A1,1,0,0,0,6,41h5V57H10a1,1,0,0,0-1,1v4a1,1,0,0,0,1,1H54a1,1,0,0,0,1-1V58a1,1,0,0,0-1-1H53V41ZM27,57V46a5,5,0,0,1,10,0V57Zm5-18a7.009,7.009,0,0,0-7,7v7H13V40.414l14.305-14.3a13.172,13.172,0,0,0,1.408.462l2.435,3.952a1,1,0,0,0,1.7,0l2.435-3.952a13.172,13.172,0,0,0,1.408-.462L51,40.414V53H39V46A7.009,7.009,0,0,0,32,39Zm20.414,0L38.607,25.193a12.987,12.987,0,0,0,1.853-1.318L55.586,39ZM32,3a11,11,0,0,1,2.431,21.721,1,1,0,0,0-.631.451L32,28.092l-1.8-2.92a1,1,0,0,0-.631-.451A11,11,0,0,1,32,3ZM23.54,23.875a12.987,12.987,0,0,0,1.853,1.318L11.586,39H8.414ZM13,55H25v2H13Zm40,6H11V59H53ZM39,57V55H51v2Z"/><path d="M29,13.979V17a1,1,0,0,0,.293.707l.293.293-.293.293A1,1,0,0,0,29,19v2a1,1,0,0,0,.293.707l2,2a1,1,0,0,0,1.414,0l2-2A1,1,0,0,0,35,21V13.979a5,5,0,1,0-6,0ZM32,7a3,3,0,0,1,3,3,2.968,2.968,0,0,1-1.5,2.581,1,1,0,0,0-.5.864v7.141l-1,1-1-1V19.414l.707-.707a1,1,0,0,0,0-1.414L31,16.586V13.445a1,1,0,0,0-.5-.864A2.968,2.968,0,0,1,29,10,3,3,0,0,1,32,7Z"/><rect x="31" y="9" width="2" height="2"/></svg>
