<svg height="480pt" viewBox="0 0 480.02596 480" width="480pt" xmlns="http://www.w3.org/2000/svg"><path d="m8 416.011719h232v-16h-224v-384h216v64c0 4.417969 3.582031 8 8 8h64v88h16v-96c0-.175781-.089844-.328125-.105469-.503907-.039062-.699218-.175781-1.390624-.40625-2.054687-.089843-.257813-.152343-.503906-.265625-.753906-.386718-.871094-.925781-1.664063-1.597656-2.34375l-58.3125-58.34375h76.6875v160h16v-160h16v160h16v-168c0-4.417969-3.582031-8.0000002-8-8.0000002h-368c-4.417969 0-8 3.5820312-8 8.0000002v400c0 4.417969 3.582031 8 8 8zm240-344v-44.6875l44.6875 44.6875zm0 0"/><path d="m248 296.011719v-80.453125l11.808594 7.269531c2.46875 1.519531 5.566406 1.585937 8.09375.171875 2.53125-1.417969 4.097656-4.089844 4.097656-6.988281v-32c0-2.777344-1.441406-5.359375-3.808594-6.816407l-28.191406-17.34375v-39.839843c0-4.417969-3.582031-8-8-8h-32c-4.417969 0-8 3.582031-8 8v10.304687l-27.808594-17.121094c-2.570312-1.578124-5.8125-1.578124-8.382812 0l-104 64c-2.367188 1.457032-3.808594 4.039063-3.808594 6.816407v32c0 2.898437 1.566406 5.570312 4.097656 6.988281 2.527344 1.414062 5.625 1.347656 8.09375-.171875l11.808594-7.269531v80.453125c0 4.417969 3.582031 8 8 8h160c4.417969 0 8-3.582031 8-8zm-40-168h16v21.992187l-16-9.847656zm-144 60.472656 96-59.078125 96 59.078125v13.207031l-91.808594-56.496094c-2.570312-1.578124-5.8125-1.578124-8.382812 0l-91.808594 56.496094zm80 99.527344v-48h32v48zm48 0v-56c0-4.417969-3.582031-8-8-8h-48c-4.417969 0-8 3.582031-8 8v56h-40v-82.304688l72-44.300781 72 44.300781v82.304688zm0 0"/><path d="m48 40.011719h104v16h-104zm0 0"/><path d="m48 72.011719h168v16h-168zm0 0"/><path d="m48 320.011719h192v16h-192zm0 0"/><path d="m48 352.011719h48v16h-48zm0 0"/><path d="m464 428.699219v-116.6875c-.042969-34.960938-25.160156-64.855469-59.59375-70.925781l18.792969-37.496094c1.242187-2.488282 1.105469-5.441406-.363281-7.800782-1.46875-2.363281-4.054688-3.792968-6.835938-3.777343h-112c-2.78125-.015625-5.367188 1.414062-6.835938 3.777343-1.46875 2.359376-1.605468 5.3125-.363281 7.800782l18.75 37.496094c-34.414062 6.085937-59.511719 35.976562-59.550781 70.925781v116.6875l-8.679688 8.683593c-7.136718 7.132813-9.28125 17.863282-5.429687 27.191407s12.9375 15.421875 23.03125 15.445312h190.183594c10.089843-.015625 19.179687-6.109375 23.03125-15.4375 3.851562-9.332031 1.707031-20.058593-5.433594-27.191406zm-8.894531 35.3125h-190.175781c-3.625-.011719-6.882813-2.207031-8.261719-5.558594-1.378907-3.351563-.601563-7.203125 1.964843-9.761719l11.023438-11.03125c1.5-1.496094 2.339844-3.527344 2.34375-5.648437v-120c.035156-30.910157 25.085938-55.964844 56-56 2.78125.015625 5.367188-1.414063 6.835938-3.773438s1.605468-5.3125.363281-7.800781l-18.253907-36.425781h86.109376l-18.214844 36.425781c-1.238282 2.480469-1.105469 5.425781.351562 7.785156 1.460938 2.355469 4.035156 3.792969 6.808594 3.789063 30.914062.035156 55.964844 25.089843 56 56v120c0 2.121093.84375 4.15625 2.34375 5.65625l11.03125 11.039062c1.675781 1.6875 2.621094 3.96875 2.625 6.347657.007812 4.925781-3.96875 8.933593-8.894531 8.957031zm0 0"/><path d="m372 344.011719h-24c-6.628906 0-12-5.371094-12-12 0-6.625 5.371094-12 12-12h44v-16h-24v-16h-16v16h-4c-15.464844 0-28 12.539062-28 28 0 15.464843 12.535156 28 28 28h24c6.628906 0 12 5.375 12 12 0 6.628906-5.371094 12-12 12h-44v16h24v16h16v-16h4c15.464844 0 28-12.535157 28-28 0-15.460938-12.535156-28-28-28zm0 0"/><path d="m112 352.011719h128v16h-128zm0 0"/><path d="m168 40.011719h48v16h-48zm0 0"/></svg>