<?xml version="1.0"?>
<svg xmlns="http://www.w3.org/2000/svg" viewBox="0 0 512 512" width="512" height="512"><g id="Outline"><path d="M240,112a8,8,0,0,0-8,8v32a8,8,0,0,0,8,8h32a8,8,0,0,0,8-8V120a8,8,0,0,0-8-8Zm24,32H248V128h16ZM24,280H224V264H96V188.28c7.952-5.3,15.648-10.186,25.263-11.7a47.975,47.975,0,0,1,41.08,13.078A8,8,0,0,0,168,192h60a12.013,12.013,0,0,1,12,12,12.163,12.163,0,0,1-3.517,8.482,12,12,0,0,1-5.133,3.039C230.3,215.839,176,216,176,216a8,8,0,0,0,0,16h64a8,8,0,0,0,5.122-1.854l28.8-24-10.243-12.292-7.909,6.592A28.036,28.036,0,0,0,228,176H208V96h96v64h16s0-72,0-72.022,0-.067,0-.1a8.174,8.174,0,0,0-1.925-5.081c-.018-.021-.031-.044-.048-.065l-56-64A8,8,0,0,0,256,16H144a8.024,8.024,0,0,0-6.045,2.761L121.979,37.019l12.042,10.535L144,36.148,182.37,80H105.63l16.391-18.732L109.979,50.732s-28,32-27.994,32A7.964,7.964,0,0,0,80,88v88H24a8,8,0,0,0-8,8v88A8,8,0,0,0,24,280ZM160,168.045A62.981,62.981,0,0,0,129.37,160h-.83c-.18,0-.36.009-.54.011V128h32ZM161.63,32h90.74l42,48H203.63ZM96,96h96v80H176V120a8,8,0,0,0-8-8H120a8,8,0,0,0-8,8v42.238a63.023,63.023,0,0,0-16,6.9ZM32,192H80v72H32Zm16,40H64v16H48Zm296,80v-2.053A5.954,5.954,0,0,0,338.053,304H317.947a5.947,5.947,0,0,0-1.881,11.589l28.927,9.642A21.948,21.948,0,0,1,338.053,368H336v8H320v-8h-2.053A21.973,21.973,0,0,1,296,346.053V344h16v2.053A5.954,5.954,0,0,0,317.947,352h20.106a5.947,5.947,0,0,0,1.881-11.589l-28.927-9.642A21.948,21.948,0,0,1,317.947,288H320v-8h16v8h2.053A21.973,21.973,0,0,1,360,309.947V312Zm-60.785-16.282-13.841-8.026a40.246,40.246,0,0,1,14.614-14.613l8.024,13.842A24.234,24.234,0,0,0,283.215,295.718ZM264,307.705h16v40H264Zm139.734-97.211c19.134,10.1,34.649,28.042,43.688,50.522l-14.844,5.968c-7.628-18.969-20.524-34-36.312-42.339ZM488,392H427.4a14.507,14.507,0,0,1-3.4-9.37V320H408v61c0-1.283-11.2-3.586-12.523-3.845A63.868,63.868,0,0,0,340.814,392H284a28.041,28.041,0,0,0-27.775,24.44L240.215,403.1l5.442-5.442A8,8,0,0,0,248,392V304a55.949,55.949,0,0,1,56-56h48a55.983,55.983,0,0,1,56,56h16a72.006,72.006,0,0,0-61.17-71.193l12.759-38.277A8,8,0,0,0,368,184H288a8,8,0,0,0-7.589,10.53l12.761,38.285a71.87,71.87,0,0,0-51.006,34.277A71.863,71.863,0,0,0,232,304v84.687s-4.8,4.8-5.232,5.232c-.207.207-6.847-1.7-7.708-1.78-17.961-1.757-35.06,10.3-35.06,29.35a29.3,29.3,0,0,0,11.385,23.279l57.2,44.492A32.158,32.158,0,0,0,272.234,496H400V480H272.234a16.077,16.077,0,0,1-9.822-3.37l-57.2-44.491A13.49,13.49,0,0,1,213.49,408c4.057,0,8.008.329,11.365,3.126l42.023,35.02A8,8,0,0,0,272,448h64a8,8,0,0,0,0-16H284a12,12,0,0,1,0-24h60a8,8,0,0,0,5.657-2.344c15.506-15.51,41.47-17.956,59.668-5.825l6.675,4.45V488a8,8,0,0,0,8,8h64a8,8,0,0,0,8-8V400A8,8,0,0,0,488,392ZM356.9,200l-10.666,32H309.766L299.1,200ZM480,480H432V408h48Zm-16-16H448V448h16ZM63.428,109.029l-14.856,5.942a58.347,58.347,0,0,1,24.254-72l3.058-1.834,8.232,13.718-3.058,1.835A42.415,42.415,0,0,0,63.428,109.029ZM181.47,368.41,184,376l2.607,7.563C185.847,383.834,168,390.5,168,416H152C152,378.663,180.267,368.812,181.47,368.41ZM344,96c0-25.934-18.345-32.349-18.53-32.41l5.06-15.18c1.2.4,29.47,10.253,29.47,47.59Z"/></g></svg>
