<svg xmlns="http://www.w3.org/2000/svg" xmlns:xlink="http://www.w3.org/1999/xlink" version="1.1" x="0px" y="0px" viewBox="0 0 64 80" style="enable-background:new 0 0 64 64;" xml:space="preserve"><path d="M3,20h5v41c0,0.552,0.447,1,1,1h8c0.553,0,1-0.448,1-1V20h10v6h-2c-2.757,0-5,2.243-5,5v18c0,2.757,2.243,5,5,5h24  c2.757,0,5-2.243,5-5V31c0-2.757-2.243-5-5-5h-2v-6h9c0.266,0,0.52-0.105,0.707-0.293l4-4c0.391-0.391,0.391-1.023,0-1.414l-4-4  C57.52,10.105,57.266,10,57,10H18V7c0-0.265-0.105-0.52-0.293-0.707l-4-4c-0.391-0.391-1.023-0.391-1.414,0l-4,4  C8.105,6.48,8,6.735,8,7v3H3c-0.553,0-1,0.448-1,1v8C2,19.552,2.447,20,3,20z M16,60h-6V20h6V60z M10,18v-6h6v6H10z M53,31v18  c0,1.654-1.346,3-3,3H26c-1.654,0-3-1.346-3-3V31c0-1.654,1.346-3,3-3h24C51.654,28,53,29.346,53,31z M46,26H30v-6h16V26z   M56.586,12l3,3l-3,3H18v-6H56.586z M10,7.414l3-3l3,3V10h-6V7.414z M4,12h4v6H4V12z"/><rect x="12" y="14" width="2" height="2"/><path d="M29,50h7h4h7c0.553,0,1-0.448,1-1V39c0-0.286-0.122-0.558-0.336-0.748L46,36.773V31c0-0.552-0.447-1-1-1h-4  c-0.553,0-1,0.448-1,1v0.44l-1.336-1.188c-0.379-0.337-0.949-0.337-1.328,0l-9,8C28.122,38.442,28,38.714,28,39v10  C28,49.552,28.447,50,29,50z M37,48v-4h2v4H37z M30,39.449l8-7.111l2.336,2.076c0.294,0.262,0.714,0.326,1.074,0.165  C41.769,34.417,42,34.06,42,33.667V32h2v5.222c0,0.286,0.122,0.558,0.336,0.748L46,39.449V48h-5v-5c0-0.552-0.447-1-1-1h-4  c-0.553,0-1,0.448-1,1v5h-5V39.449z"/><rect x="37" y="56" width="2" height="2"/><rect x="33" y="56" width="2" height="2"/><rect x="41" y="56" width="2" height="2"/><text x="0" y="79" fill="#000000" font-size="5px" font-weight="bold" font-family="'Helvetica Neue', Helvetica, Arial-Unicode, Arial, Sans-serif">Created by Becris</text><text x="0" y="84" fill="#000000" font-size="5px" font-weight="bold" font-family="'Helvetica Neue', Helvetica, Arial-Unicode, Arial, Sans-serif">from the Noun Project</text></svg>