<svg xmlns="http://www.w3.org/2000/svg" xmlns:xlink="http://www.w3.org/1999/xlink" version="1.1" x="0px" y="0px" viewBox="0 0 512 640" enable-background="new 0 0 512 512" xml:space="preserve"><path d="M431.3,14.355H257.891c-37.673,0-68.321,30.648-68.321,68.321v27.147L23.623,207.097  c-5.344,3.131-7.135,10.003-4.003,15.347l15.876,27.085c3.132,5.343,10.004,7.137,15.347,4.003l6.289-3.687v191.455H25.157  c-6.193,0-11.215,5.021-11.215,11.215v34.442c0,6.194,5.021,11.215,11.215,11.215h391.116c6.193,0,11.215-5.021,11.215-11.215  v-34.442c0-6.194-5.021-11.215-11.215-11.215h-31.975V256.765H431.3c37.673,0,68.321-30.647,68.321-68.32V82.676  C499.621,45.004,468.973,14.355,431.3,14.355z M477.191,188.446c0,25.304-20.587,45.89-45.892,45.89H326.827  c-2.381,0-4.698,0.757-6.621,2.163l-51.582,37.724l0.48-28.483c0.05-3.006-1.11-5.908-3.219-8.052  c-2.108-2.145-4.988-3.352-7.995-3.352c-25.305,0-45.892-20.586-45.892-45.89V82.676c0-25.304,20.586-45.891,45.892-45.891H431.3  c25.305,0,45.892,20.587,45.892,45.891V188.446z M137.758,475.743V340.942h61.433v59.768h-15.235  c-6.194,0-11.215,5.021-11.215,11.215c0,6.193,5.021,11.215,11.215,11.215h15.235v52.604H137.758z M36.372,475.743V463.73h78.956  v12.013H36.372z M405.059,475.743H221.621V463.73h183.438V475.743z M221.621,441.301V329.727c0-6.193-5.021-11.215-11.215-11.215  h-83.863c-6.194,0-11.215,5.021-11.215,11.215v111.573H79.562V236.71l110.008-64.49v16.226c0,33.792,24.661,61.934,56.932,67.371  l-0.683,40.589c-0.071,4.258,2.273,8.188,6.054,10.146c1.625,0.843,3.395,1.258,5.158,1.258c2.338,0,4.663-0.731,6.622-2.163  l66.838-48.881h31.379v184.535H221.621z M189.569,146.218L49.175,228.511l-4.534-7.735l144.928-84.953V146.218z"/><path d="M359.229,211.614l-0.12-16.282c4.215-1.176,8.16-3.16,11.641-5.886c1.146-0.898,2.244-1.876,3.282-2.931  c6.329-6.422,9.777-14.926,9.712-23.942c-0.067-9.016-3.641-17.466-10.064-23.796c-6.422-6.329-14.926-9.776-23.942-9.709  c-8.816,0.065-16.042-7.055-16.107-15.871c-0.064-8.815,7.054-16.042,15.87-16.107l0,0c0.001,0,0.002,0,0.003,0  c8.815-0.064,16.04,7.055,16.105,15.871c0.035,4.906,4.043,8.853,8.948,8.817c4.907-0.037,8.854-4.043,8.817-8.949  c-0.066-9.016-3.641-17.468-10.062-23.796c-4.255-4.192-9.427-7.112-15.052-8.591l-0.12-16.287  c-0.035-4.905-4.042-8.854-8.948-8.817s-8.854,4.043-8.817,8.949l0.12,16.286c-5.602,1.563-10.728,4.559-14.921,8.813  c-6.329,6.422-9.776,14.926-9.71,23.942c0.066,9.017,3.641,17.467,10.063,23.796c6.422,6.329,14.926,9.777,23.942,9.709  c4.271-0.031,8.298,1.602,11.341,4.6c3.042,2.997,4.734,7,4.766,11.271c0.032,4.27-1.602,8.298-4.6,11.341  c-2.998,3.041-7.001,4.735-11.271,4.766c-4.271,0.032-8.299-1.602-11.341-4.599c-3.042-2.998-4.734-7-4.767-11.271  c-0.035-4.907-4.042-8.854-8.948-8.818s-8.853,4.043-8.818,8.95c0.068,9.016,3.641,17.467,10.063,23.795  c4.255,4.191,9.424,7.111,15.048,8.591l0.121,16.287c0.035,4.905,4.043,8.854,8.948,8.817c2.04-0.015,3.915-0.716,5.407-1.884  C357.912,217.039,359.25,214.48,359.229,211.614z"/><text x="0" y="527" fill="#000000" font-size="5px" font-weight="bold" font-family="'Helvetica Neue', Helvetica, Arial-Unicode, Arial, Sans-serif">Created by Chanut is Industries</text><text x="0" y="532" fill="#000000" font-size="5px" font-weight="bold" font-family="'Helvetica Neue', Helvetica, Arial-Unicode, Arial, Sans-serif">from the Noun Project</text></svg>