<svg xmlns="http://www.w3.org/2000/svg" xmlns:xlink="http://www.w3.org/1999/xlink" version="1.1" x="0px" y="0px" viewBox="0 0 512 640" enable-background="new 0 0 512 512" xml:space="preserve"><g><path d="M256,275.5c15.1,0,27.4,12.3,27.4,27.5c0,7.8,6.3,14.1,14.1,14.1s14.1-6.3,14.1-14.1c0-25.8-17.7-47.5-41.5-53.8v-13.1   c0-7.8-6.3-14.1-14.1-14.1c-7.8,0-14.1,6.3-14.1,14.1v13.1c-23.8,6.3-41.5,28-41.5,53.8c0,30.7,27,55.5,57.7,55.5   c-0.5,0.1,0,0,0.1,0c14.1,1.1,25.1,13,25.1,27.4c0,15.2-12.3,27.5-27.4,27.5c-15.1,0-27.4-12.3-27.4-27.5c0-7.8-6.3-14.1-14.1-14.1   c-7.8,0-14.1,6.3-14.1,14.1c0,25.8,17.7,47.5,41.5,53.8v13c0,7.8,6.3,14.1,14.1,14.1c7.8,0,14.1-6.3,14.1-14.1v-13   c23.8-6.3,41.5-28,41.5-53.8c0-30.7-24.9-55.7-55.6-55.7c0.5-0.1,0,0-0.1,0c-14.1-1.1-27.2-12.8-27.2-27.2   C228.6,287.8,240.9,275.5,256,275.5z"/><path d="M503.2,149.4L263.3,4c-4.5-2.7-10.1-2.7-14.6,0L8.8,149.4c-5.4,3.3-8,9.8-6.3,15.9c1.7,6.1,7.3,10.3,13.6,10.3h10v36.9   c0,7.8,6.3,14.1,14.1,14.1h12.3v205H40.3c-7.8,0-14.1,6.3-14.1,14.1v50.1c0,7.8,6.3,14.1,14.1,14.1h111.1c7.8,0,14.1-6.3,14.1-14.1   v-50.1c0-7.8-6.3-14.1-14.1-14.1H139v-205h12.3c7.8,0,14.1-6.3,14.1-14.1v-36.9h181v36.9c0,7.8,6.3,14.1,14.1,14.1H373v205h-12.3   c-7.8,0-14.1,6.3-14.1,14.1v50.1c0,7.8,6.3,14.1,14.1,14.1h111.1c7.8,0,14.1-6.3,14.1-14.1v-50.1c0-7.8-6.3-14.1-14.1-14.1h-12.3   v-205h12.3c7.8,0,14.1-6.3,14.1-14.1v-36.9h10c6.3,0,11.9-4.2,13.6-10.3S508.6,152.7,503.2,149.4z M137.3,481.8H54.4v-21.9h82.9   V481.8z M80.8,431.6v-205h30v205H80.8z M137.3,198.4H54.4v-21.9h82.9V198.4z M66.6,147.4L256,32.6l189.4,114.8H66.6z M457.6,481.8   h-82.9v-21.9h82.9V481.8z M401.2,431.6v-205h30v205H401.2z M457.6,198.4h-82.9v-21.9h82.9V198.4z"/></g><text x="0" y="527" fill="#000000" font-size="5px" font-weight="bold" font-family="'Helvetica Neue', Helvetica, Arial-Unicode, Arial, Sans-serif">Created by Icon Fair</text><text x="0" y="532" fill="#000000" font-size="5px" font-weight="bold" font-family="'Helvetica Neue', Helvetica, Arial-Unicode, Arial, Sans-serif">from the Noun Project</text></svg>