<svg id="Capa_1" enable-background="new 0 0 511.99 511.99" height="512" viewBox="0 0 511.99 511.99" width="512" xmlns="http://www.w3.org/2000/svg"><g><path d="m450.975 40.9h-155.42v-17.07c0-13.14-10.694-23.83-23.84-23.83h-31.44c-13.146 0-23.84 10.69-23.84 23.83v17.07h-54.54c-4.142 0-7.5 3.358-7.5 7.5s3.358 7.5 7.5 7.5h289.08c23.931 0 43.4 19.469 43.4 43.4v151.97c0 23.931-19.469 43.4-43.4 43.4h-389.96c-23.931 0-43.4-19.469-43.4-43.4v-151.97c0-23.931 19.469-43.4 43.4-43.4h70.88c4.142 0 7.5-3.358 7.5-7.5s-3.358-7.5-7.5-7.5h-70.88c-32.202 0-58.4 26.198-58.4 58.4v151.97c0 32.202 26.198 58.4 58.4 58.4h155.42v135.409c-9.878 1.769-18.669 7.042-24.846 14.724-7.671-9.546-19.379-15.383-32.204-15.383-12.822 0-24.531 5.837-32.207 15.383-7.671-9.546-19.379-15.383-32.204-15.383-22.795 0-41.34 18.541-41.34 41.33v18.74c0 4.142 3.358 7.5 7.5 7.5h389.72c4.142 0 7.5-3.358 7.5-7.5v-18.74c0-22.79-18.545-41.33-41.34-41.33-12.838 0-24.555 5.847-32.226 15.41-3.838-4.761-8.72-8.672-14.311-11.353-3.735-1.792-8.214-.215-10.005 3.52s-.215 8.215 3.52 10.006c6.489 3.112 11.477 8.823 13.684 15.669.999 3.099 3.884 5.199 7.14 5.198s6.14-2.103 7.137-5.202c3.513-10.915 13.584-18.248 25.061-18.248 14.524 0 26.34 11.812 26.34 26.33v11.24h-374.719v-11.24c0-14.519 11.816-26.33 26.34-26.33 11.477 0 21.548 7.333 25.061 18.248.998 3.099 3.881 5.201 7.137 5.202h.002c3.255 0 6.139-2.1 7.138-5.198 3.521-10.917 13.597-18.252 25.072-18.252 11.477 0 21.548 7.333 25.061 18.248.997 3.099 3.88 5.201 7.137 5.202h.002c3.255 0 6.139-2.1 7.138-5.198 3.521-10.917 13.598-18.252 25.072-18.252 11.469 0 21.541 7.335 25.062 18.252.999 3.098 3.883 5.198 7.138 5.198s6.139-2.1 7.138-5.198c3.522-10.917 13.593-18.252 25.062-18.252 11.475 0 21.551 7.335 25.072 18.252.999 3.098 3.883 5.198 7.138 5.198s6.139-2.1 7.138-5.198c2.208-6.849 7.192-12.56 13.674-15.669 3.735-1.791 5.311-6.271 3.52-10.006-1.792-3.735-6.272-5.311-10.005-3.52-5.589 2.68-10.469 6.592-14.307 11.355-6.178-7.699-14.979-12.983-24.871-14.754v-135.408h155.42c32.202 0 58.4-26.198 58.4-58.4v-151.97c.001-32.202-26.197-58.4-58.399-58.4zm-219.54-17.07c0-4.869 3.965-8.83 8.84-8.83h31.44c4.875 0 8.84 3.961 8.84 8.83v17.07h-49.12zm49.12 421.305c-9.762 1.819-18.443 7.06-24.56 14.671-6.117-7.611-14.799-12.852-24.56-14.671v-135.465h49.12z"/><path d="m180.464 239.781c3.022 0 5.871-1.84 7.01-4.833l8.821-23.16h58.421l8.732 23.138c1.462 3.875 5.789 5.831 9.665 4.369 3.875-1.462 5.832-5.79 4.369-9.665l-42.415-112.39c-.026-.069-.053-.137-.081-.205-1.562-3.796-5.221-6.247-9.325-6.247-.003 0-.007 0-.011 0-4.108.004-7.768 2.464-9.323 6.267-.023.056-.045.113-.067.169l-42.804 112.386c-1.475 3.871.468 8.204 4.339 9.678.88.335 1.782.493 2.669.493zm45.175-105.039 23.416 62.047h-47.047z"/><path d="m313.068 110.787c-4.142 0-7.5 3.358-7.5 7.5v113.896c0 3.654 2.632 6.775 6.233 7.392.54.093 28.26.18 41.225.108 4.142-.023 7.481-3.4 7.458-7.542s-3.433-7.475-7.542-7.458c-9.768.055-23.949.106-32.375.094v-106.49c.001-4.142-3.357-7.5-7.499-7.5z"/><path d="m439.119 126.828c4.142 0 7.5-3.358 7.5-7.5s-3.358-7.5-7.5-7.5h-47.593c-4.142 0-7.5 3.358-7.5 7.5v112.952c0 4.142 3.358 7.5 7.5 7.5h47.593c4.142 0 7.5-3.358 7.5-7.5s-3.358-7.5-7.5-7.5h-40.093v-41.476h36.584c4.142 0 7.5-3.358 7.5-7.5s-3.358-7.5-7.5-7.5h-36.584v-41.476z"/><path d="m96.391 112.897c-13.194 3.975-22.514 14.27-24.322 26.867-1.674 11.658 3.372 22.867 13.167 29.253.332.216.679.406 1.041.567.651.291 16.151 7.19 33.623 13.635 13.933 5.139 20.951 13.536 19.254 23.037-1.604 8.98-11.456 18.524-26.557 18.524-13.204 0-25.976-5.396-34.166-14.434-2.781-3.069-7.524-3.303-10.594-.521-3.069 2.781-3.303 7.524-.521 10.594 10.986 12.123 27.914 19.361 45.281 19.361 20.414 0 38.179-13.279 41.323-30.887 1.438-8.056-.335-15.969-5.129-22.885-5.018-7.239-12.992-12.912-23.7-16.862-15.128-5.58-29.125-11.683-32.117-13.001-4.619-3.244-6.878-8.529-6.057-14.249.984-6.858 6.144-12.33 13.801-14.636 19.808-5.967 37.433 8.36 37.608 8.506 3.17 2.646 7.886 2.23 10.545-.933 2.665-3.171 2.255-7.902-.916-10.567-.962-.81-23.881-19.709-51.564-11.369z"/></g></svg>