<svg height="483pt" viewBox="0 0 483 483.25514" width="483pt" xmlns="http://www.w3.org/2000/svg"><path d="m298.699219 130.753906-124.648438-88c-2.761719-1.945312-6.453125-1.945312-9.214843 0l-124.648438 88c-6.609375 4.597656-10.230469 12.402344-9.464844 20.417969s5.796875 14.996094 13.15625 18.257813c7.363282 3.261718 15.910156 2.300781 22.363282-2.515626l15.199218-11.199218v109.601562c0 8.835938 7.164063 16 16 16h144c8.839844 0 16-7.164062 16-16v-109.546875l15.203125 11.203125c6.457031 4.753906 14.972657 5.675782 22.296875 2.40625 7.324219-3.269531 12.328125-10.21875 13.101563-18.203125.773437-7.984375-2.800781-15.765625-9.359375-20.378906zm-169.257813 134.5625v-48h32v48zm112 0h-64v-56c0-4.417968-3.582031-8-8-8h-48c-4.417968 0-8 3.582032-8 8v56h-16v-121.28125l72-52.800781 72 52.800781zm49.601563-112.863281c-.949219 1.425781-2.441407 2.40625-4.128907 2.707031-1.691406.304688-3.429687-.097656-4.816406-1.109375l-107.949218-79.199219c-2.820313-2.070312-6.65625-2.070312-9.472657 0l-107.953125 79.199219c-1.816406 1.476563-4.304687 1.820313-6.453125.890625-2.152343-.925781-3.605469-2.972656-3.78125-5.304687-.171875-2.335938.964844-4.574219 2.953125-5.808594l120-84.722656 120 84.714843c2.796875 1.960938 3.507813 5.796876 1.601563 8.632813zm0 0"/><path d="m185.441406 209.316406v32c0 4.417969 3.582032 8 8 8h32c4.417969 0 8-3.582031 8-8v-32c0-4.417968-3.582031-8-8-8h-32c-4.417968 0-8 3.582032-8 8zm16 8h16v16h-16zm0 0"/><path d="m137.441406 153.316406c0 17.671875 14.328125 32 32 32 17.675782 0 32-14.328125 32-32 0-17.675781-14.324218-32-32-32-17.671875 0-32 14.324219-32 32zm48 0c0 8.835938-7.160156 16-16 16-8.835937 0-16-7.164062-16-16 0-8.835937 7.164063-16 16-16 8.839844 0 16 7.164063 16 16zm0 0"/><path d="m471.097656 411.660156-72-72c-14.203125-14.171875-36.449218-16.304687-53.085937-5.089844l-52.441407-52.457031c61.613282-67.761719 57.886719-172.308593-8.394531-235.515625-66.28125-63.203125-170.890625-61.960937-235.648437 2.800782-64.761719 64.761718-66.003906 169.367187-2.800782 235.648437 63.203126 66.28125 167.753907 70.007813 235.515626 8.394531l52.449218 52.449219c-11.199218 16.636719-9.070312 38.875 5.085938 53.082031l72 72c16.378906 16.378906 42.933594 16.378906 59.3125 0s16.378906-42.933594 0-59.3125zm-301.65625-90.34375c-83.945312 0-152-68.054687-152-152 0-83.949218 68.054688-152 152-152 83.949219 0 152 68.050782 152 152-.089844 83.90625-68.089844 151.90625-152 152zm290.34375 138.34375c-10.136718 10.113282-26.546875 10.113282-36.6875 0l-72-72c-9.933594-10.164062-9.84375-26.429687.207032-36.480468 10.050781-10.050782 26.316406-10.144532 36.480468-.207032l72 72c10.121094 10.132813 10.121094 26.550782 0 36.6875zm0 0"/></svg>