<?xml version="1.0" encoding="iso-8859-1"?>
<!-- Generator: Adobe Illustrator 18.1.1, SVG Export Plug-In . SVG Version: 6.00 Build 0)  -->
<svg version="1.1" id="Capa_1" xmlns="http://www.w3.org/2000/svg" xmlns:xlink="http://www.w3.org/1999/xlink" x="0px" y="0px"
	 viewBox="0 0 285.002 285.002" style="enable-background:new 0 0 285.002 285.002;" xml:space="preserve">
<g>
	<g>
		<path d="M146.731,57.915c-2.425-2.094-6.036-2.094-8.461,0l-97.624,84.212c-1.423,1.228-2.245,3.019-2.245,4.902v121.78
			c0,3.578,2.9,6.476,6.481,6.476h195.236c3.581,0,6.481-2.897,6.481-6.476v-121.78c0-1.883-0.822-3.674-2.245-4.902L146.731,57.915
			z M233.644,262.33H51.358V149.998l91.143-78.618l91.143,78.618V262.33z"/>
		<path d="M280.495,124.252L150.95,12.848c-4.862-4.175-12.036-4.175-16.898,0L4.507,124.252
			c-5.424,4.667-6.036,12.846-1.379,18.271c4.663,5.424,12.858,6.037,18.271,1.376L142.501,39.756l121.103,104.143
			c2.443,2.103,5.449,3.13,8.437,3.13c3.643,0,7.268-1.528,9.834-4.506C286.531,137.099,285.919,128.919,280.495,124.252z"/>
		<path d="M85.228,208.06l-7.979-1.81c-3.037-0.699-6.537-1.633-6.537-4.549s2.449-4.954,6.884-4.954
			c8.925,0,8.103,6.237,12.537,6.237c2.331,0,4.372-1.401,4.372-3.791c0-5.598-8.807-9.794-16.272-9.794
			c-8.103,0-16.736,3.498-16.736,12.828c0,4.49,1.583,9.274,10.267,11.488l10.787,2.74c3.271,0.816,4.088,2.684,4.088,4.376
			c0,2.795-2.752,5.536-7.7,5.536c-9.686,0-8.344-7.583-13.532-7.583c-2.326,0-4.021,1.636-4.021,3.968
			c0,4.549,5.424,10.613,17.553,10.613c11.541,0,17.256-5.656,17.256-13.233C96.193,215.228,93.98,210.039,85.228,208.06z"/>
		<path d="M122.548,189.399c-13.768,0-21.232,9.154-21.232,21.456c0,12.713,6.179,22.51,21.232,22.51
			c14.337,0,21.215-10.675,21.215-22.51C143.763,198.553,136.298,189.399,122.548,189.399z M122.548,225.668
			c-8.986,0-11.665-6.763-11.665-14.813c0-8.047,3.848-13.762,11.665-13.762c7.812,0,11.652,5.715,11.652,13.762
			C134.2,218.905,131.231,225.668,122.548,225.668z"/>
		<path d="M156.343,232.379h19.953c2.733,0,4.954-1.401,4.954-4.026c0-2.626-2.221-4.023-4.954-4.023h-15.982v-29.917
			c0-2.857-1.861-4.781-4.78-4.781c-2.913,0-4.788,1.924-4.788,4.781v32.363C150.745,231.03,152.96,232.379,156.343,232.379z"/>
		<path d="M191.963,232.379h11.491c12.772,0,20.176-7.704,20.176-20.998c0-16.443-9.563-20.992-20.002-20.992h-11.665
			c-3.371,0-5.598,1.339-5.598,5.598v30.789C186.365,231.03,188.592,232.379,191.963,232.379z M195.934,198.086h7.984
			c7.002,0,10.149,5.013,10.149,13.295c0,6.473-2.449,13.294-10.088,13.294h-8.046v-26.589H195.934z"/>
	</g>
</g>
<g>
</g>
<g>
</g>
<g>
</g>
<g>
</g>
<g>
</g>
<g>
</g>
<g>
</g>
<g>
</g>
<g>
</g>
<g>
</g>
<g>
</g>
<g>
</g>
<g>
</g>
<g>
</g>
<g>
</g>
</svg>
