<svg id="Group_1330" data-name="Group 1330" xmlns="http://www.w3.org/2000/svg" width="22.556" height="30.53">
    <defs>
        <style>
            .cls-1{fill:#292929}
        </style>
    </defs>
    <path id="Path_267" data-name="Path 267" className="cls-1" d="M59.358 0A11.291 11.291 0 0 0 48.08 11.278a13.012 13.012 0 0 0 .957 4.342 18.187 18.187 0 0 0 1.3 2.438l7.733 11.716a1.471 1.471 0 0 0 2.57 0l7.733-11.717a18.113 18.113 0 0 0 1.3-2.438 13.009 13.009 0 0 0 .956-4.342A11.291 11.291 0 0 0 59.358 0zm9.1 15.105a16.665 16.665 0 0 1-1.188 2.222l-7.735 11.718c-.153.232-.2.232-.354 0l-7.733-11.718A16.671 16.671 0 0 1 50.26 15.1a11.811 11.811 0 0 1-.853-3.827 9.951 9.951 0 0 1 19.9 0 11.821 11.821 0 0 1-.851 3.832z" transform="translate(-48.08)"/>
    <path id="Path_268" data-name="Path 268" className="cls-1" d="M118.051 64.008a5.971 5.971 0 1 0 5.971 5.971 5.978 5.978 0 0 0-5.971-5.971zm0 10.614a4.644 4.644 0 1 1 4.644-4.644 4.649 4.649 0 0 1-4.644 4.644z" transform="translate(-106.773 -58.7)"/>
</svg>
