<svg xmlns="http://www.w3.org/2000/svg" width="28.028" height="26.534">
    <defs>
        <style>
            .cls-1{fill:#292929}
        </style>
    </defs>
    <g id="clean" transform="translate(0 -8.601)">
        <g id="Group_1432" data-name="Group 1432" transform="translate(0 8.601)">
            <g id="Group_1431" data-name="Group 1431">
                <path id="Path_339" data-name="Path 339" className="cls-1" d="M142.083 86.369a.57.57 0 0 0-.382-.243c-.8 0-7.681-.278-7.681-8.272a.452.452 0 0 0-.9 0c0 7.994-6.882 8.272-7.647 8.272a.4.4 0 0 0-.278.1c-.07.035-.1.1-.139.139a.516.516 0 0 0 0 .452.482.482 0 0 0 .417.243h.035c.8 0 7.647.278 7.647 8.272a.452.452 0 1 0 .9 0c0-7.96 6.847-8.272 7.647-8.272a.53.53 0 0 0 .417-.243.427.427 0 0 0-.036-.448zm-8.516 5.561a7.934 7.934 0 0 0-5.422-5.353 7.934 7.934 0 0 0 5.422-5.353 7.934 7.934 0 0 0 5.422 5.353 7.934 7.934 0 0 0-5.421 5.353z" transform="translate(-114.138 -71.423)"/>
                <path id="Path_340" data-name="Path 340" className="cls-1" d="M55.7 14.51a.468.468 0 0 0 .452-.487.46.46 0 0 0-.452-.452 4.118 4.118 0 0 1-4.171-4.519.452.452 0 1 0-.9 0 4.118 4.118 0 0 1-4.171 4.519h-.035a.454.454 0 0 0-.417.452.46.46 0 0 0 .452.452c.452 0 4.171.139 4.171 4.519a.46.46 0 0 0 .452.452.4.4 0 0 0 .417-.417 4.118 4.118 0 0 1 4.171-4.519h.031zm-4.66 1.981a4.661 4.661 0 0 0-2.5-2.468 4.676 4.676 0 0 0 2.5-2.468 4.661 4.661 0 0 0 2.5 2.468 4.676 4.676 0 0 0-2.5 2.468z" transform="translate(-42.003 -8.601)"/>
                <path id="Path_341" data-name="Path 341" className="cls-1" d="M9.7 193.971a4.118 4.118 0 0 1-4.171-4.519.452.452 0 0 0-.9 0 4.118 4.118 0 0 1-4.171 4.519H.417a.454.454 0 0 0-.417.452.46.46 0 0 0 .452.452c.452 0 4.171.139 4.171 4.519a.46.46 0 0 0 .452.452c.209.07.417-.139.417-.417a4.118 4.118 0 0 1 4.171-4.519H9.7a.468.468 0 0 0 .452-.487.46.46 0 0 0-.452-.452zm-4.66 2.955a4.776 4.776 0 0 0-2.5-2.468 4.676 4.676 0 0 0 2.5-2.468 4.661 4.661 0 0 0 2.5 2.468 4.676 4.676 0 0 0-2.5 2.468z" transform="translate(0 -173.325)"/>
            </g>
        </g>
    </g>
</svg>
