<svg xmlns="http://www.w3.org/2000/svg" width="31" height="27.845">
    <defs>
        <style>
            .cls-1{fill:#292929}
        </style>
    </defs>
    <g id="house" transform="translate(0 -25.018)">
        <g id="Group_1428" data-name="Group 1428" transform="translate(0 25.018)">
            <g id="Group_1427" data-name="Group 1427">
                <path id="Path_337" data-name="Path 337" className="cls-1" d="m30.765 35.458-5.72-3.985.02-.087v-5.212a.654.654 0 0 0-.688-.572h-3.194a.634.634 0 0 0-.668.572v2.159l-4.577-3.184a.786.786 0 0 0-.869 0L.242 35.452a.48.48 0 0 0-.087.769.775.775 0 0 0 .942.071l.013-.011 14.393-10 5.152 3.582L23.735 32l6.165 4.286a.776.776 0 0 0 .942-.06.483.483 0 0 0-.077-.768zm-7.043-4.906-1.871-1.287V26.7h1.871z" transform="translate(0 -25.018)"/>
            </g>
        </g>
        <g id="Group_1430" data-name="Group 1430" transform="translate(2.41 28.147)">
            <g id="Group_1429" data-name="Group 1429">
                <path id="Path_338" data-name="Path 338" className="cls-1" d="m70.148 93.116-1.959-1.664-10.435-8.868a.7.7 0 0 0-.906 0l-10.436 8.868-1.959 1.664a.69.69 0 0 0-.077.978.681.681 0 0 0 .962.083l.007-.007.871-.749v13a.734.734 0 0 0 .718.714H67.66a.729.729 0 0 0 .718-.714v-13l.871.749a.7.7 0 0 0 .446.166.706.706 0 0 0 .53-.243.683.683 0 0 0-.077-.977zm-10.059 12.625h-5.577v-7.488h5.577zm1.394 0V97.58a.692.692 0 0 0-.669-.714h-7.027a.692.692 0 0 0-.669.714v8.16h-5.507V92.235l9.69-8.209 9.69 8.209v13.505z" transform="translate(-44.208 -82.418)"/>
            </g>
        </g>
    </g>
</svg>
