<svg xmlns="http://www.w3.org/2000/svg" width="25.469" height="24.62">
    <defs>
        <style>
            .cls-1{fill:#292929}
        </style>
    </defs>
    <g id="outline" transform="translate(-16 -32)">
        <path id="Path_347" data-name="Path 347" className="cls-1" d="M40.2 32H17.273A1.275 1.275 0 0 0 16 33.273v5.943a1.275 1.275 0 0 0 1.273 1.273H40.2a1.275 1.275 0 0 0 1.273-1.273v-5.943A1.275 1.275 0 0 0 40.2 32zm-2.122 5.943H19.4v-.849h18.673zM19.4 39.641v-.849h18.673v.849zm21.224-.424a.425.425 0 0 1-.424.424h-1.278v-2.547a.85.85 0 0 0-.849-.849H19.4a.85.85 0 0 0-.849.849v2.547h-1.278a.425.425 0 0 1-.424-.424v-5.944a.425.425 0 0 1 .424-.424H40.2a.425.425 0 0 1 .424.424z"/>
        <path id="Path_348" data-name="Path 348" className="cls-1" d="M191.57 370.878a.424.424 0 0 0 .588.12l.573-.378.441.255v1.04l-.441.255-.573-.378a.424.424 0 1 0-.468.708l.615.406.044.736a.424.424 0 0 0 .423.4h.026a.424.424 0 0 0 .4-.449l-.041-.686.441-.255.9.52v.509l-.614.307a.424.424 0 1 0 .38.759l.659-.329.659.33a.424.424 0 1 0 .38-.759l-.614-.307v-.509l.9-.52.441.255-.041.686a.424.424 0 0 0 .4.449h.026a.424.424 0 0 0 .423-.4l.044-.736.615-.406a.424.424 0 0 0-.468-.708l-.573.379-.441-.255v-1.04l.441-.255.573.378a.424.424 0 0 0 .468-.708l-.615-.406-.044-.736a.424.424 0 0 0-.847.051l.041.686-.441.255-.9-.52v-.509l.614-.307a.424.424 0 1 0-.38-.759l-.659.329-.659-.33a.424.424 0 0 0-.38.759l.614.307v.509l-.9.52-.441-.255.041-.686a.424.424 0 1 0-.847-.051l-.044.736-.615.406a.425.425 0 0 0-.12.589zm2.451 0 .9-.52.9.52v1.04l-.9.52-.9-.52z" transform="translate(-166.188 -318.17)"/>
        <path id="Path_349" data-name="Path 349" className="cls-1" d="m72.321 307.113-.252.146-.4-.266a.424.424 0 0 0-.468.708l.445.294.032.533a.424.424 0 0 0 .423.4h.026a.424.424 0 0 0 .4-.449l-.029-.483.252-.146.617.356v.291l-.432.216a.424.424 0 0 0 .38.759l.477-.239.477.239a.425.425 0 0 0 .38-.759l-.432-.216v-.297l.617-.356.252.146-.029.483a.425.425 0 0 0 .4.449h.026a.425.425 0 0 0 .423-.4l.032-.533.445-.294a.424.424 0 0 0-.468-.708l-.4.266-.252-.146v-.707l.252-.146.4.266a.424.424 0 1 0 .468-.708l-.445-.294-.032-.533a.424.424 0 0 0-.847.051l.029.483-.252.146-.617-.356v-.291l.432-.216a.424.424 0 1 0-.38-.759l-.477.239-.477-.239a.424.424 0 1 0-.38.759l.432.216v.291l-.617.356-.252-.146.029-.483a.424.424 0 1 0-.847-.051l-.032.533-.445.294a.424.424 0 1 0 .468.708l.4-.266.252.146zm.849-.712.617-.356.617.356v.712l-.617.356-.617-.356z" transform="translate(-52.088 -257.565)"/>
        <path id="Path_350" data-name="Path 350" className="cls-1" d="M337.119 312.589a.425.425 0 0 0-.449.4l-.032.533-.445.294a.424.424 0 0 0 .468.708l.4-.266.252.146v.712l-.252.146-.4-.266a.424.424 0 1 0-.468.708l.445.294.032.533a.425.425 0 0 0 .423.4h.026a.425.425 0 0 0 .4-.449l-.029-.483.252-.146.617.356v.291l-.432.216a.424.424 0 1 0 .38.759l.477-.239.477.239a.424.424 0 1 0 .38-.759l-.432-.216v-.3l.617-.356.252.146-.029.483a.425.425 0 0 0 .4.449h.026a.425.425 0 0 0 .423-.4l.032-.533.445-.294a.424.424 0 1 0-.468-.708l-.4.266-.252-.146v-.707l.252-.146.4.266a.424.424 0 1 0 .468-.708l-.445-.294-.032-.533a.424.424 0 1 0-.847.051l.029.483-.252.146-.617-.356v-.291l.432-.216a.424.424 0 1 0-.38-.759l-.477.239-.477-.239a.424.424 0 1 0-.38.759l.432.216v.291l-.617.356-.252-.146.029-.483a.425.425 0 0 0-.402-.447zm1.046 1.813.617-.356.617.356v.712l-.617.356-.617-.356z" transform="translate(-303.023 -265.141)"/>
        <circle id="Ellipse_87" data-name="Ellipse 87" className="cls-1" cx=".424" cy=".424" r=".424" transform="translate(33.956 34.547)"/>
        <circle id="Ellipse_88" data-name="Ellipse 88" className="cls-1" cx=".455" cy=".455" r=".455" transform="translate(35.405 34.608)"/>
        <circle id="Ellipse_89" data-name="Ellipse 89" className="cls-1" cx=".455" cy=".455" r=".455" transform="translate(37.224 34.608)"/>
        <path id="Path_351" data-name="Path 351" className="cls-1" d="M248.424 209.273a.424.424 0 0 0 .424-.424v-.424a.424.424 0 0 0-.849 0v.424a.424.424 0 0 0 .425.424z" transform="translate(-219.69 -166.661)"/>
        <path id="Path_352" data-name="Path 352" className="cls-1" d="M248 242.971a.424.424 0 1 0 .849 0v-2.547a.424.424 0 1 0-.849 0z" transform="translate(-219.69 -196.963)"/>
        <path id="Path_353" data-name="Path 353" className="cls-1" d="M168.605 264.127a3.835 3.835 0 0 1-.436.382.424.424 0 1 0 .509.679 4.7 4.7 0 0 0 .533-.467.424.424 0 0 0-.606-.594z" transform="translate(-143.934 -219.69)"/>
        <path id="Path_354" data-name="Path 354" className="cls-1" d="M193.574 210.511a.424.424 0 0 0 .559-.219 4.642 4.642 0 0 0 .39-1.868.424.424 0 0 0-.849 0 3.8 3.8 0 0 1-.319 1.528.424.424 0 0 0 .219.559z" transform="translate(-167.911 -166.661)"/>
        <path id="Path_355" data-name="Path 355" className="cls-1" d="M308.525 249.357a3.8 3.8 0 0 1-1.016-1.146.424.424 0 1 0-.735.424 4.643 4.643 0 0 0 1.242 1.4.424.424 0 0 0 .509-.679z" transform="translate(-275.291 -204.538)"/>
        <path id="Path_356" data-name="Path 356" className="cls-1" d="M296.849 208.424a.424.424 0 1 0-.849 0 4.68 4.68 0 0 0 .094.933.424.424 0 1 0 .832-.169 3.832 3.832 0 0 1-.077-.764z" transform="translate(-265.143 -166.661)"/>
    </g>
</svg>
