<svg xmlns="http://www.w3.org/2000/svg" width="18.894" height="19.997">
    <defs>
        <style>
            .cls-1{fill:#292929}
        </style>
    </defs>
    <g id="swimming-pool" transform="translate(-14.119)">
        <path id="Path_371" data-name="Path 371" className="cls-1" d="M146.675 153.473a1.4 1.4 0 0 1-1.045-.515.477.477 0 0 0-.736 0 1.418 1.418 0 0 1-2.188 0 .477.477 0 0 0-.736 0 1.418 1.418 0 0 1-2.188 0 .477.477 0 0 0-.736 0 1.4 1.4 0 0 1-1.045.515.293.293 0 0 0 .02.586 2.008 2.008 0 0 0 1.392-.632 2 2 0 0 0 2.924 0 2 2 0 0 0 2.924 0 2.008 2.008 0 0 0 1.392.632.293.293 0 0 0 .02-.586z" transform="translate(-118.772 -146.817)"/>
        <path id="Path_372" data-name="Path 372" className="cls-1" d="M138.84 214.482a.477.477 0 0 0-.736 0 1.418 1.418 0 0 1-2.188 0 .477.477 0 0 0-.736 0 1.418 1.418 0 0 1-2.188 0 .477.477 0 0 0-.736 0 1.415 1.415 0 0 1-1.274.5.293.293 0 0 0-.074.581 2 2 0 0 0 1.715-.617 2 2 0 0 0 2.924 0 2 2 0 0 0 2.924 0 2 2 0 0 0 1.715.617.293.293 0 0 0-.074-.581 1.415 1.415 0 0 1-1.272-.5z" transform="translate(-111.982 -205.938)"/>
        <path id="Path_373" data-name="Path 373" className="cls-1" d="M153.683 91.484a1.406 1.406 0 0 1-.8-.485.477.477 0 0 0-.736 0 1.418 1.418 0 0 1-2.188 0 .477.477 0 0 0-.736 0 1.418 1.418 0 0 1-2.188 0 .477.477 0 0 0-.736 0 1.406 1.406 0 0 1-.8.485.293.293 0 1 0 .121.573 1.982 1.982 0 0 0 1.047-.59 2 2 0 0 0 2.924 0 2 2 0 0 0 2.924 0 1.982 1.982 0 0 0 1.047.59.293.293 0 1 0 .121-.573z" transform="translate(-126.025 -87.277)"/>
        <path id="Path_374" data-name="Path 374" className="cls-1" d="M15.715 16.766h6.629v2.718a.514.514 0 0 0 .514.514h.984a.514.514 0 0 0 .514-.514v-.057h2.9v.057a.514.514 0 0 0 .514.514h.984a.514.514 0 0 0 .514-.514v-2.718h2.153A1.6 1.6 0 0 0 33 15.01l-.5-4.362a.293.293 0 1 0-.582.068l.509 4.355a1.011 1.011 0 0 1-1.005 1.109h-2.158v-.744h1.755a.626.626 0 0 0 .622-.688v-.005L30.127 1.89a.624.624 0 0 0-.622-.56h-5.256a.293.293 0 0 0 0 .586h5.256a.04.04 0 0 1 .039.036l1.513 12.851a.04.04 0 0 1-.04.042h-1.753v-.894a2.747 2.747 0 0 0-5.2-1.234 2.748 2.748 0 0 0-5.2 1.234v.894h-2.752a.04.04 0 0 1-.04-.042l1.514-12.846a.04.04 0 0 1 .039-.036h5.256a.293.293 0 0 0 0-.586h-5.255A.624.624 0 0 0 17 1.89l-1.509 12.853v.005a.626.626 0 0 0 .622.688h6.232v.744h-6.63a1.011 1.011 0 0 1-1.005-1.109L16.3 1.5a1.007 1.007 0 0 1 1-.914h12.53a1.007 1.007 0 0 1 1.005.909l.917 7.85a.293.293 0 1 0 .582-.068l-.917-7.848A1.591 1.591 0 0 0 29.831 0H17.3a1.591 1.591 0 0 0-1.588 1.434l-1.585 13.572a1.6 1.6 0 0 0 1.588 1.756zm10.065-2.785a.754.754 0 0 1 .723-.761.738.738 0 0 1 .75.736v.894H25.78zm-1.425 2.785h2.9v.744h-2.9zm3.055-1.33a.372.372 0 0 1 0 .744h-3.055v-.744zM24.355 18.1h3.055a.372.372 0 0 1 0 .744h-3.055zm4.323 1.315h-.839v-.086a.958.958 0 0 0 0-1.713v-.948a.958.958 0 0 0 0-1.713v-1a1.322 1.322 0 0 0-2.645 0v.894h-.839V14a2.192 2.192 0 0 1 2.145-2.2 2.163 2.163 0 0 1 2.182 2.161zm-9.232-4.565V14a2.189 2.189 0 0 1 2.254-2.2 2.164 2.164 0 0 1 2.074 2.159v5.455h-.844v-5.458a1.322 1.322 0 0 0-2.645 0v.894h-.839zm1.425 0v-.869a.76.76 0 0 1 .62-.752.737.737 0 0 1 .853.726v.894z"/>
    </g>
</svg>
