<svg xmlns="http://www.w3.org/2000/svg" width="20.353" height="25.237">
    <defs>
        <style>
            .cls-1{fill:#292929}
        </style>
    </defs>
    <g id="washer" transform="translate(-56 -8)">
        <path id="Path_375" data-name="Path 375" className="cls-1" d="M74.928 8h-17.5A1.426 1.426 0 0 0 56 9.425v22.387a1.426 1.426 0 0 0 1.425 1.425h17.5a1.426 1.426 0 0 0 1.425-1.425V9.425A1.426 1.426 0 0 0 74.928 8zm.611 23.812a.611.611 0 0 1-.611.611h-17.5a.611.611 0 0 1-.611-.611V12.885h18.721zm0-19.742H56.814V9.425a.611.611 0 0 1 .611-.611h17.5a.611.611 0 0 1 .611.611z"/>
        <path id="Path_376" data-name="Path 376" className="cls-1" d="M149.7 176a5.7 5.7 0 1 0 5.7 5.7 5.7 5.7 0 0 0-5.7-5.7zm0 10.583a4.885 4.885 0 1 1 4.885-4.885 4.885 4.885 0 0 1-4.885 4.885z" transform="translate(-83.522 -159.452)"/>
        <path id="Path_377" data-name="Path 377" className="cls-1" d="M80.407 34.442h1.628a.407.407 0 0 0 .407-.407v-1.628a.407.407 0 0 0-.407-.407h-1.628a.407.407 0 0 0-.407.407v1.628a.407.407 0 0 0 .407.407zm.407-1.628h.814v.814h-.814z" transform="translate(-22.779 -22.779)"/>
        <path id="Path_378" data-name="Path 378" className="cls-1" d="M136.407 34.442h1.628a.407.407 0 0 0 .407-.407v-1.628a.407.407 0 0 0-.407-.407h-1.628a.407.407 0 0 0-.407.407v1.628a.407.407 0 0 0 .407.407zm.407-1.628h.814v.814h-.814z" transform="translate(-75.929 -22.779)"/>
        <path id="Path_379" data-name="Path 379" className="cls-1" d="M192.407 34.442h1.628a.407.407 0 0 0 .407-.407v-1.628a.407.407 0 0 0-.407-.407h-1.628a.407.407 0 0 0-.407.407v1.628a.407.407 0 0 0 .407.407zm.407-1.628h.814v.814h-.814z" transform="translate(-129.08 -22.779)"/>
        <path id="Path_380" data-name="Path 380" className="cls-1" d="M126.857 148.478h-.611a.4.4 0 0 0-.157.032 7.327 7.327 0 1 0 0 5.636.4.4 0 0 0 .157.032h.611a1.426 1.426 0 0 0 1.425-1.425V149.9a1.426 1.426 0 0 0-1.425-1.425zm-7.53 9.362a6.513 6.513 0 1 1 6.513-6.513 6.513 6.513 0 0 1-6.513 6.513zm8.141-5.088a.611.611 0 0 1-.611.611h-.2v-4.07h.2a.611.611 0 0 1 .611.611z" transform="translate(-53.151 -129.08)"/>
    </g>
</svg>
