<svg xmlns="http://www.w3.org/2000/svg" width="20.501" height="20.817">
    <path data-name="Path 387" d="M3.883 15.469a.3.3 0 1 1 .61 0v4.738H6.81V9.151L5.652 7.71 4.493 9.151v4.936a.3.3 0 1 1-.61 0V9.044a.305.305 0 0 1 .068-.19l1.46-1.815a.4.4 0 0 1 .05-.051.306.306 0 0 1 .429.047l1.45 1.8a.306.306 0 0 1 .082.207v2.125h2.572V9.044a.3.3 0 0 1 .068-.19l1.46-1.815a.34.34 0 0 1 .05-.051.3.3 0 0 1 .428.047l1.45 1.8a.306.306 0 0 1 .082.207v2.125H16.1V9.044a.305.305 0 0 1 .068-.19l1.46-1.815a.347.347 0 0 1 .051-.051.3.3 0 0 1 .428.047l1.45 1.8a.306.306 0 0 1 .082.207v6.721a3.255 3.255 0 0 1 .633-.263v-5.107a.3.3 0 1 1 .61 0v4.994q.144-.014.29-.014t.29.014V3.726a.291.291 0 0 0-.29-.29.3.3 0 0 0-.206.085.289.289 0 0 0-.084.205v5.286a.3.3 0 1 1-.61 0V3.726a.9.9 0 0 1 1.8 0V15.5a3.225 3.225 0 0 1 2.31 3.081v1.929a.3.3 0 0 1-.305.3h-7.67a.3.3 0 0 1-.305-.3v-1.745h-2.571v1.747a.3.3 0 0 1-.3.3H10.3a.3.3 0 0 1-.3-.3v-1.747H7.421v1.747a.3.3 0 0 1-.305.3H4.188a.3.3 0 0 1-.305-.3v-5.043zm1.464-3.041a.3.3 0 0 1 .61 0v.172a.3.3 0 1 1-.61 0zm12.22 0a.305.305 0 0 1 .611 0v.172a.305.305 0 1 1-.611 0zm-6.109 0a.3.3 0 0 1 .61 0v.172a.3.3 0 1 1-.61 0zm0 4.909a.3.3 0 1 1 .61 0v.169a.3.3 0 1 1-.61 0zm-6.111 0a.3.3 0 1 1 .61 0v.169a.3.3 0 1 1-.61 0zM13.116 6.21a1.012 1.012 0 0 1-.316-1.975 1.55 1.55 0 0 1 2.832-.422 1.135 1.135 0 0 1 .141-.008 1.2 1.2 0 0 1 .851 2.055 1.25 1.25 0 0 1-.917.349h-2.59zm-.286-.727a.405.405 0 0 0 .286.118h2.59a.594.594 0 1 0 .067-1.185.61.61 0 0 0-.2.035.3.3 0 0 1-.387-.176.942.942 0 0 0-1.814.23.306.306 0 0 1-.284.292.4.4 0 0 0-.255.687zM7.895 3.709a.3.3 0 0 1 0 .61h-1.2a1.339 1.339 0 0 1-.981-2.251 1.352 1.352 0 0 1 .638-.384A2.126 2.126 0 0 1 10.3 1.11a1.617 1.617 0 0 1 1.9 1.594 1.55 1.55 0 0 1-.5 1.151 1.782 1.782 0 0 1-1.212.463h-1.2a.3.3 0 0 1 0-.61h1.2a1.172 1.172 0 0 0 .8-.3.947.947 0 0 0 .307-.705 1.008 1.008 0 0 0-1.02-1.003 1.029 1.029 0 0 0-.343.059.3.3 0 0 1-.387-.176 1.518 1.518 0 0 0-2.924.382.3.3 0 0 1-.282.292.73.73 0 0 0 .054 1.458zM19.283 18.9a.3.3 0 1 1 .607 0v1.3h.98v-1.3a.3.3 0 1 1 .607 0v1.3h.981v-1.3a.3.3 0 1 1 .607 0v1.3h.709v-1.617a2.564 2.564 0 0 0-.195-.982h-4.811a2.585 2.585 0 0 0-.194.982v1.624h.709zm-.16-1.913h4.1a2.891 2.891 0 0 0-.216-.244 2.59 2.59 0 0 0-3.672 0 2.7 2.7 0 0 0-.212.249zm-.091-.793V9.151l-1.16-1.441-1.159 1.441v11.056h1.252v-1.624a3.2 3.2 0 0 1 1.067-2.383zm-11.61-4.42v1.469h2.572v-1.464zm0 2.079v2.219h2.572v-2.214zm0 2.828v1.469h2.572v-1.464zm8.682 0h-2.573v1.469H16.1zm-2.572-.61H16.1v-2.213h-2.569zm0-2.828H16.1v-1.464h-2.569zM10.6 20.207h2.318V9.151L11.762 7.71 10.6 9.151v11.056z" style="fill:#292929" transform="translate(-3.883)"/>
</svg>
